<?xml version="1.0" encoding="UTF-8"?><!DOCTYPE svg PUBLIC "-//W3C//DTD SVG 1.0//EN" "http://www.w3.org/TR/2001/REC-SVG-20010904/DTD/svg10.dtd" []><svg xmlns="http://www.w3.org/2000/svg" xmlns:xlink="http://www.w3.org/1999/xlink" height="38.1" preserveAspectRatio="xMidYMid meet" version="1.0" viewBox="0.0 0.0 446.4 38.1" width="446.4" zoomAndPan="magnify"><defs><clipPath id="a"><path d="M 0 0 L 211 0 L 211 38.140625 L 0 38.140625 Z M 0 0"/></clipPath><clipPath id="b"><path d="M 235 0 L 446.351562 0 L 446.351562 38.140625 L 235 38.140625 Z M 235 0"/></clipPath></defs><g><g clip-path="url(#a)" id="change1_1"><path d="M 149.6875 20.699219 C 151.546875 18.230469 152.367188 15.367188 152.789062 12.269531 C 153.132812 9.738281 152.773438 7.335938 151.605469 5.28125 C 150.15625 2.726562 147.992188 1.871094 146.269531 3.144531 C 144.53125 4.429688 143.761719 7.359375 144.464844 10.59375 C 145.351562 14.679688 147.023438 18.003906 149.6875 20.699219 Z M 148.601562 22.492188 C 147.441406 20.929688 146.367188 19.699219 145.480469 18.242188 C 143.832031 15.542969 142.585938 12.519531 142.464844 8.796875 C 142.324219 4.457031 143.648438 1.542969 146.300781 0.355469 C 148.8125 -0.773438 151.691406 0.871094 153.125 4.316406 C 154.816406 8.371094 154.640625 12.578125 153.382812 16.730469 C 152.808594 18.625 151.972656 20.359375 151.191406 22.335938 C 154.835938 26.132812 158.953125 28.230469 163.226562 29.632812 C 171.089844 32.207031 179.011719 31.851562 186.941406 30.183594 C 192.894531 28.929688 198.816406 26.839844 204.894531 28.191406 C 206.890625 28.632812 208.828125 29.601562 210.734375 30.792969 C 203.125 28.136719 195.675781 29.78125 188.195312 31.742188 C 177.039062 34.667969 165.996094 34.570312 155.347656 28.070312 C 153.507812 26.949219 151.769531 25.488281 149.894531 24.117188 C 142.234375 33.238281 132.917969 35.519531 123.378906 36.90625 C 113.796875 38.300781 104.199219 38.511719 94.597656 37.550781 C 84.101562 36.5 73.667969 34.558594 63.457031 30.886719 C 53.542969 27.324219 43.746094 23.082031 33.867188 19.3125 C 27.21875 16.777344 20.457031 14.726562 13.550781 16.449219 C 10.636719 17.175781 7.765625 18.734375 5.042969 20.457031 C 2.710938 21.933594 1.417969 26.105469 2.042969 28.515625 C 2.6875 31.011719 5.167969 32.089844 8.097656 30.632812 C 10.054688 29.664062 11.855469 28.046875 13.703125 26.644531 C 14.796875 25.816406 15.84375 24.847656 17.292969 24.449219 C 17.066406 25.179688 16.964844 26.105469 16.589844 26.609375 C 13.378906 30.929688 9.800781 34.179688 5.15625 33.875 C 0.699219 33.582031 -1.296875 28.414062 0.894531 22.839844 C 2.003906 20.019531 3.652344 18.027344 5.726562 16.695312 C 11.867188 12.761719 18.289062 12.40625 24.820312 13.628906 C 34.929688 15.519531 44.582031 20.039062 54.304688 24.148438 C 64.65625 28.519531 75.160156 31.835938 85.894531 33.734375 C 96.195312 35.554688 106.507812 35.84375 116.847656 35.175781 C 124.160156 34.703125 131.429688 33.574219 138.472656 30.5 C 142.078125 28.925781 145.445312 26.632812 148.601562 22.492188" fill="#231f20"/></g><g clip-path="url(#b)" id="change1_2"><path d="M 296.304688 21.121094 C 299.292969 18.117188 300.964844 14.976562 301.867188 11.027344 C 302.710938 7.320312 301.964844 4.300781 299.964844 3.035156 C 297.980469 1.777344 295.265625 3.203125 294.308594 6.542969 C 293.757812 8.476562 293.507812 10.945312 293.824219 12.945312 C 294.246094 15.632812 295.347656 18.097656 296.304688 21.121094 Z M 235.847656 30.960938 C 239.207031 27.800781 242.980469 27.511719 246.691406 27.847656 C 250.964844 28.238281 255.210938 29.285156 259.457031 30.160156 C 269.25 32.175781 278.964844 32.421875 288.398438 27.34375 C 290.765625 26.070312 293 24.292969 294.980469 22.957031 C 293.941406 18.902344 292.742188 15.492188 292.214844 11.882812 C 291.449219 6.597656 293.769531 1.625 297.136719 0.308594 C 300.488281 -1.003906 303.710938 2.191406 303.984375 7.148438 C 304.222656 11.488281 302.902344 15.027344 301.003906 18.175781 C 300.113281 19.652344 299.0625 20.925781 297.714844 22.808594 C 299.785156 24.660156 301.609375 26.558594 303.59375 28.011719 C 308.128906 31.335938 313.097656 32.589844 318.074219 33.613281 C 328.894531 35.832031 339.789062 36.046875 350.664062 35.074219 C 361.527344 34.105469 372.292969 31.84375 382.824219 27.714844 C 392.6875 23.847656 402.523438 19.824219 412.40625 16.066406 C 418.261719 13.839844 424.238281 12.773438 430.328125 13.105469 C 434.246094 13.320312 437.9375 14.8125 441.390625 17.207031 C 444.09375 19.078125 446.15625 22.136719 446.34375 26.859375 C 446.476562 30.230469 445.199219 32.699219 442.976562 33.585938 C 438.53125 35.359375 431.367188 30.71875 429.347656 24.023438 C 430.386719 24.808594 431.417969 25.605469 432.460938 26.371094 C 434.480469 27.855469 436.425781 29.640625 438.546875 30.710938 C 441.285156 32.09375 443.707031 30.964844 444.386719 28.605469 C 445.0625 26.25 443.800781 22.035156 441.453125 20.519531 C 438.742188 18.769531 435.875 17.234375 432.960938 16.453125 C 427.007812 14.855469 421.082031 16.253906 415.308594 18.367188 C 408.9375 20.699219 402.675781 23.613281 396.34375 26.152344 C 383.125 31.460938 369.707031 35.203125 356.007812 37.007812 C 344.382812 38.539062 332.796875 38.359375 321.214844 36.714844 C 315.476562 35.902344 309.789062 34.375 304.488281 31.011719 C 301.679688 29.226562 299.101562 26.6875 296.179688 24.292969 C 291.613281 28.390625 286.320312 31.070312 280.671875 32.433594 C 274.390625 33.949219 268.109375 33.914062 261.832031 32.558594 C 258.039062 31.742188 254.285156 30.585938 250.484375 29.914062 C 245.578125 29.050781 240.667969 29.238281 235.847656 30.960938" fill="#231f20"/></g></g></svg>