<?xml version="1.0" encoding="UTF-8"?><svg xmlns="http://www.w3.org/2000/svg" xmlns:xlink="http://www.w3.org/1999/xlink" height="421.7" preserveAspectRatio="xMidYMid meet" version="1.0" viewBox="-2.1 -0.5 411.7 421.7" width="411.7" zoomAndPan="magnify"><g id="change1_1"><path d="M33.9,127.6c0,0,0.1,0.1,0.1,0.1C34,127.6,33.9,127.6,33.9,127.6L33.9,127.6z M96.5,44.1c-0.1,0-0.1,0-0.2-0.1 C96.4,44,96.4,44.1,96.5,44.1c0,0.1,0.1,0.1,0.1,0.1C96.6,44.1,96.6,44.1,96.5,44.1L96.5,44.1z M408.6,300c-0.2,0.2-0.5,0.5-0.8,0.6 c-8.5,5.3-15.3,12.6-21.9,19.9c-6.1,6.8-13.2,12.2-21.8,15.7c-9.2,3.7-18.3,3.7-27.5,0.3c-1-0.4-1.9-0.7-3.1-1.1 c-1.8,2.7-3.5,5.3-3.9,8.5c-0.4,2.7-1,5.3-1.8,7.9c-0.4,1.4-0.4,2.6,0.1,4c6,15.1,12,30.2,18,45.3c1.8,4.4,3.5,8.9,5.3,13.3 c0.1,0.2,0.1,0.3,0.2,0.5c0.8,2.4,0.2,4.6-1.6,5.5c-1.6,0.8-4.2-0.2-5.4-2c-0.5-0.8-1-1.7-1.3-2.5c-3.7-8.2-7.3-16.5-11.1-24.7 c-4.7-10.3-9.5-20.5-14.5-30.6c-2.8-5.7-6-11.2-9-16.8c-5.5-10.2-10.9-20.4-16.5-30.5c-3.8-7-7.8-14-11.8-20.9 c-0.7-1.2-1.8-2.4-2.9-3.3c-2.3-1.8-4.7-3.6-7.3-5.1c-4.1-2.4-8.7-2.8-13.3-3.3c-0.9-0.1-1.8,0.1-2.6-0.1c-4.2-0.7-6.3,1.4-7.7,5.2 c-1.8,5-2.7,10.1-2.3,15.4c0.7,8.1,1.8,16.3,2.6,24.4c1.3,13.2,0.9,26.3-3.6,38.9c-3.8,10.8-11.2,18.5-21.5,23.3 c-6.6,3.1-13,6.6-18.5,11.5c-0.3,0.2-0.5,0.5-0.8,0.6c-0.8,0.2-1.7,0.5-2.3,0.3c-0.4-0.2-0.6-1.4-0.4-2.1c0.3-1.4,0.8-2.9,1.2-4.3 c2.8-8.8,4.9-17.6,4-26.9c-0.3-2.9-0.8-5.9-1.3-8.8c-1.3-8.2-2.4-16.4-1.4-24.7c1.9-14.7,7.2-27.9,16.9-39.2l0-0.1l-0.1,0.1 c-2.8,1.1-5.6,2.3-8.4,3.3c-7.2,2.6-13.6,6.5-19.6,11.2c-1.1,0.9-1.8,1.8-1.8,3.2c0.1,4,0,8,0.3,12c0.7,10.2,1.2,20.3,0.5,30.5 c-0.5,8.1-3.3,15.2-8.9,21.2c-2.7,2.8-5.6,5.5-8.3,8.3c-3.3,3.4-6.5,7-9.8,10.5c-0.3,0.3-0.5,0.8-0.8,1c-0.6,0.3-1.2,0.4-1.8,0.6 c-0.2-0.6-0.6-1.3-0.5-1.8c0.3-1.9,0.8-3.7,1.3-5.6c1.3-5.1,1.1-10.2,0.7-15.3c-1.8-20.8,4.1-39.2,16.7-55.5 c0.2-0.2,0.3-0.4,0.6-0.9c-4.5,2.3-8.7,4.4-12.8,6.7c-0.9,0.5-1.4,1.9-1.9,3c-2.7,5.2-5.2,10.6-8.1,15.8 c-5.3,9.1-13.2,15.4-22.3,20.3c-6,3.2-12.5,5.7-18.5,9.1c-4,2.2-7.4,5.4-11.1,8.1c-0.3,0.2-0.5,0.6-0.8,0.7 c-0.8,0.3-1.7,0.5-2.6,0.7c-0.2-0.8-0.7-1.7-0.6-2.4c0.8-2.9,1.6-5.9,2.8-8.7c6.2-15.6,17.3-26.5,31.8-34.6 c9.2-5.2,18.9-9.2,28.5-13.4c2.8-1.2,5.5-2.9,8.2-4.4c-3.1,0.7-6.2,1.6-9.4,2.1c-5.2,0.8-10.5,1.4-15.7,1.9 c-1.5,0.1-2.5,0.4-3.6,1.6c-2.6,2.8-5.9,4.6-9.6,5.4c-4.3,1-8.6,2.1-12.9,3c-0.7,0.2-1.6-0.2-2.4-0.3c0.3-0.8,0.3-1.9,0.8-2.4 c5.8-6,12.5-9.8,21.1-9.7c5.7,0.1,11.5,0.2,17.2-0.7c6.7-1,13.3-2.7,19.7-4.7c3.7-1.2,7.2-3.4,10.6-5.5c3.5-2.1,6.7-4.5,10.1-6.8 c-0.6,0-1.2-0.1-1.8,0c-10,1.6-20,1-30,0.9c-4,0-7.7,1-11.3,2.8c-5.9,2.8-11.6,6.1-17.7,8.2c-7.6,2.5-15.4,4.2-23.2,5.8 c-7,1.4-13.9-0.2-20.6-2c-5-1.4-10-2.3-15.2-1c-1.3,0.3-2.6,0.9-4,1.1c-0.7,0.1-1.4-0.1-2.1-0.2c0.1-0.7,0.1-1.6,0.4-2.2 c0.5-0.8,1.2-1.4,1.9-2.1c4.9-5.2,11.1-8.4,17.5-11c10-4,20.3-6.7,31.2-6.1c4.2,0.2,8.5,1.1,12.7,1.5c9.2,0.9,18.3,1.9,27.5,2.4 c7.4,0.4,14.8,0.3,22.2,0.2c15.1-0.1,28.9-4.7,41.5-12.8c5.1-3.3,10.3-6.2,16.3-7.5c2.9-0.6,5.8-0.9,8.8-1.8 c-2.7-0.3-5.4-0.7-8.1-0.9c-8.6-0.6-17.2-0.8-25.8-1.7c-5.5-0.6-10.6,0-15.7,2.1c-12.9,5.2-26.4,5.9-40.1,4.3 c-7.7-0.9-14.5-4.2-20.4-9.2c-3.6-3.1-7.1-6.4-10.4-9.9c-4.5-4.8-9.6-8.8-15.1-12.4c-0.9-0.6-1.5-1.5-2.2-2.3c1-0.6,1.9-1.5,2.9-1.8 c8.5-2.7,17.2-2.4,25.8-0.8c6.3,1.2,12.6,2.7,18.7,4.6c8.5,2.7,16.2,7.1,23.9,11.6c7.9,4.6,16.3,7.9,24.8,10.8 c1.6,0.6,3.4,0.7,5.1,0.8c11.1,0.8,22.2,1.3,33.3,2.3c7.6,0.6,15,2.3,21.6,6.3c2.1,1.3,4.1,2.9,6.2,4.3c0,0,0,0,0.1,0.1 c0,0-0.1-0.1-0.1-0.1c-1.7-3.2-3.4-6.5-5.3-9.6c-8.5-13.9-16.5-28-26.6-40.8c-12.2-15.4-24.6-30.7-39.2-44c-0.4-0.3-0.8-0.6-1.3-1 c-3.6,2.5-7.5,3.6-12.1,3c0.2,0.9,0.4,1.5,0.5,2.1c2.1,7.6,0.8,14.2-5.6,19.4c-4.2,3.4-8.2,6.8-13.7,7.8c-2.2,0.4-4.5,0.8-6.7,0.8 c-4.8,0.2-9.4,1-13.6,3.1c-6.3,3.2-12.9,3.9-19.8,3.3c-8.3-0.7-16.4-1.8-23.7-6.2c-1.4-0.9-2.7-1.8-4.3-2.9 c-0.8,0.5-1.6,1.1-2.4,1.7c-5.8,4.3-12,7.8-18.7,10.3c-8.1,3.1-16.6,3.2-25.2,3.2c-7.5,0-13.8-2.5-19.8-6.8 c-4.4-3.1-9.2-5.5-13.9-8.3c-4.3-2.5-8.1-5.5-10.6-9.8c-3.7-6.4-2.8-11.4,2.6-16.3c0.4-0.3,0.7-0.7,1.2-1.1 c-1.4-0.7-2.7-1.3-3.9-2.1c-4-2.8-6.1-6.8-6.3-11.7c0-1-0.1-2.1,0-3.1c0.2-3.5-1-6.6-2.9-9.6c-1.6-2.6-3-5.5-4-8.4 c-3-8.8,1.6-15.2,6.9-18.5c2.6-1.6,5.7-2.5,8.5-3.7c0.6-0.3,1.4-0.3,2-0.6c3-1.6,5.9-3.3,8.9-4.9c-0.6-1.3-1.5-2.7-2.2-4.3 c-2-4.8-1.7-9.5,0.3-14.2c1.8-4.2,1.7-8.2,0.1-12.4c-0.8-2-1.2-4.2-1.4-6.3c-0.4-4.2,1.6-7.3,5.6-9c5.1-2.2,10.4-1.4,15.7-1.1 c0.7,0,1.4,0.2,2,0.2c1.2-1,0.9-1.9,0.2-3c-1.3-2.3-2.5-4.6-3.4-7c-1.1-2.8-0.3-5.3,2.3-6.7c3.7-2.1,7-4.4,10-7.5 c2.5-2.6,6.1-2.8,9.5-2.9c6.4-0.2,6.7-0.4,7.8-6.8c0.5-2.7,1.1-5.5,1.8-8.1c0.8-3,2.8-5.2,5.6-6.6c2.3-1.2,4.2-2.6,5.7-4.8 c3.2-4.8,6.5-6,12.3-4.8c0.3,0.1,0.7,0,0.5,0c1.2-2.8,1.9-5.7,3.5-8c3.8-5.4,8.9-6.1,14.6-2.7c2,1.2,4,2.4,6.2,3.8 c1.7-3.9,4.1-7,7.3-9.4c1.8-1.3,3.8-2.4,5.8-3.4c2.5-1.2,5.2-2,7.6-3.4c5.2-3.2,10.8-3.4,16.6-2.9c3.7,0.3,7.5,0.6,11.2,0.2 c5.4-0.5,9.8,1.2,13.6,4.8c2.7,2.6,5,5.6,7.4,8.4c2.3,2.7,4.6,5.4,6.9,8.1c1.9,2.3,3.7,4.6,5.8,7.1c0.6-0.8,1.2-1.8,1.9-2.7 c2-2.4,4-4.8,6.2-7c0.8-0.9,2-1.5,3.1-2c3.2-1.4,6-0.5,7.9,2.5c1.6,2.6,2.3,5.4,2.4,8.4c0.1,4.3,0.1,8.5,0.1,12.8 c0,0.7,0.1,1.3,0.2,2.3c2.1-1.2,3.9-2.4,5.8-3.3c2.2-1,4.4-2,6.7-2.8c3.6-1.1,6.2-0.1,8.4,3c1.9,2.7,2.9,5.8,3.2,9 c0.5,4.7,0.9,9.4,1.3,14c0.4,5.5-2.1,9.9-5.1,14.2C243.1,84.6,236.2,90,229,95c-2.1,1.4-4.7,2.1-7.2,3.1c-0.8,0.3-1.6,0.5-2.7,0.9 c1.1,3.3,2.2,6.5,3.3,9.7c2.6-1.4,4.9-3.2,7.4-4c4.1-1.2,8.3-2.1,12.5-2.5c4.8-0.4,9.6-0.4,14.1-2.4c0.6-0.2,1.4,0.2,2.1,0.3 c-0.1,0.7,0,1.6-0.4,2.1c-5.4,6-10.7,12.1-18.2,15.8c-3.6,1.8-7.5,2.5-11.8,2.1c0.6,6.5-2.5,11.5-5.6,16.6c-1.3,2.1-2,4.6-3,6.9 c-0.6,1.4-1,2.7-1.6,4.3c9,1.6,13.4,9.1,19.2,15c0.4,0.4,0.5,1.2,0.7,1.8c-0.6,0.2-1.3,0.7-1.8,0.5c-3.1-1-6.2-0.3-9.3,0.1 c-4,0.6-7.9,1-12-0.4c0,1.8,0.1,3.3,0,4.9c-0.3,2.6-0.6,5.2-1.2,7.7c-0.4,1.4-0.1,2.2,0.8,3.2c12.4,12.6,23.5,26.4,34.4,40.2 c7.1,9,14.3,18,20.9,27.4c5.2,7.3,9.7,15,14.2,22.7c7,12.1,13.8,24.4,20.6,36.6c7.6,13.6,14.3,27.6,20.6,41.8 c0.2,0.4,0.4,0.7,0.9,1.5c1.9-7.2,2.5-13.9,0.6-20.6c-2.1-7.7-5.9-14.7-9.9-21.4c-4.8-8.1-10-16-12.5-25.2c-2-7.5-3.6-15.2-5.1-22.9 c-1-5-1.8-10.1-2-15.2c-0.5-14.4,3.2-27.5,13.4-38.3c0.5-0.6,1.1-1.2,1.7-1.6c0.6-0.4,1.3-0.5,2-0.8c0.2,0.7,0.5,1.4,0.4,2.1 c-0.2,1.6-0.7,3.2-0.9,4.9c-0.9,7.1,0.8,13.6,4.5,19.7c3.3,5.3,6.7,10.6,9.8,16c3.6,6.3,5.5,13.2,6,20.4c0.8,13,0.1,25.9-3.2,38.6 c-1.2,4.5-2.9,8.7-6,12.4c1,2.8,2.3,5.7,3.2,8.6c0.9,2.9,1.5,5.9,2.1,8.7c9.6-12.5,13.6-26.6,11.9-42.5c-0.8-7.4-2-14.8-1-22.4 c0.9-7.2,3.6-13.8,7.6-19.8c4.6-7,9.3-13.9,15.9-19.2c6.5-5.2,13.8-9,21.6-12c1.2-0.5,2.7-1.5,3.8,0c1.1,1.5-0.3,2.6-1.1,3.7 c-4.4,5.9-6.6,12.5-6.6,19.7c0,12.9-5.8,22.8-14.7,31.4c-6.6,6.4-14.3,11.3-22.9,14.7c-0.1,0.1-0.3,0.2-0.6,0.5 c1.4,9.9,1.1,19.9-3,30.1c0.9-0.6,1.3-0.7,1.7-1c7.7-6.6,16.5-11.2,25.7-15.2c7.8-3.3,15.8-6,24.2-7.1c4.4-0.6,8.9-0.2,13.3-0.3 c0.7,0,1.4,0.2,2,0.4C409.5,298,409.6,299,408.6,300z M367.1,271.8C367.1,271.8,367.1,271.7,367.1,271.8 C367.1,271.7,367.1,271.8,367.1,271.8C367,271.8,367.1,271.8,367.1,271.8z M370.3,268.4c0.1-0.2,0.2-0.4,0.3-0.6 c-0.2,0.2-0.3,0.3-0.5,0.5C370.2,268.3,370.3,268.4,370.3,268.4z M373.2,229.6c0.1,0,0.1,0,0.2,0l0.1-0.1c0,0-0.1,0.1-0.1,0.1 C373.3,229.5,373.2,229.5,373.2,229.6z M371.2,231.2c-0.3,0.1-0.6,0.3-0.9,0.4c0.3,0,0.6,0,0.9,0 C371.2,231.5,371.2,231.3,371.2,231.2z M343.7,285.7c0.2,0,0.4,0,0.6,0.1c0.3-0.5,0.6-0.9,0.9-1.4c1.8-3.3,3.3-6.7,5.4-9.8 c4.4-6.4,7.9-13,9-20.8c0.1-0.9,0.5-1.8,0.8-2.7c0.2,0.1,0.4,0.1,0.6,0.2c-0.3,2.6-0.7,5.3-1,7.9c0.9-0.8,1.6-1.8,2.1-2.8 c4-6.9,8-13.8,12.1-20.7c0.6-1,1.5-1.9,2.2-2.8c-1.1,3-2.2,6-3.3,8.8c1.3-0.5,2.5-1.1,3.8-1.6c-5,4.9-9.3,10.2-12.8,16.3 c-3.8,6.7-8.1,13-12.3,19.5c0,0,0,0,0,0c2.3-1.3,4.6-2.7,7-3.8c1-0.5,2.3-0.6,3.4-0.9c0.1,0.3,0.2,0.5,0.2,0.8 c-1.8,0.9-3.6,2-5.5,2.8c-5.3,2.4-9.4,6-11.5,11.6c0.4,0,0.9,0,1.2-0.1c3.1-1.7,6.3-3.2,9.3-5.2c3-2,6.5-3.7,8.1-7.4 c0.1-0.2,0.6-0.3,0.9-0.4c0,0.2-0.1,0.4-0.1,0.6c0,0,0,0,0,0c0-0.2,0.1-0.4,0.1-0.6c0.4-0.7,0.7-1.5,1.3-2.1 c2.7-3.1,4.8-6.6,6.2-10.4c0.7-1.7,1.3-3.4,1.9-5c0.3,0.6,0.3,1.1,0.2,1.5c-1.3,3.4-2.5,6.8-3.8,10.1c2.1-3.1,4.4-6,6.1-9.2 c2.7-4.9,2.8-10.5,3-16c0.3-6.3,2.1-12.1,5.5-17.4c0.2-0.4,0.4-0.8,0.5-1.3c-0.2-0.2-0.3-0.3-0.5-0.5c-2.3,1.4-4.5,2.7-6.8,4.1 c-2.5,1.5-5,3-7.5,4.6c0,0,0,0,0,0c-1,1.1-2,2.1-3.1,3.2c-1.6,1.6-3.3,3.2-4.9,4.8c1.4-1.7,2.7-3.4,4.2-5.1c0.7-0.8,1.4-1.5,2.1-2.2 c-0.8,0.5-1.7,0.9-2.4,1.5c-7.2,5.4-12.1,12.8-16.9,20.3c-4.2,6.5-6.6,13.6-6.8,21.3C343.2,278.8,343.5,282.3,343.7,285.7z M329.8,299.7c0-0.2,0-0.3,0-0.5c0,0-0.1,0-0.1,0c0,0.2,0,0.3,0,0.5C329.7,299.7,329.8,299.7,329.8,299.7z M326.2,269.5 c-0.2,0.7-0.4,1.3-0.6,2c-2.2,6.6-4,13.4-3.4,20.5c0.6,7.2,1.8,14.4,2.7,21.6c0.2,0,0.4,0.1,0.6,0.1c0.9-2.5,1.9-4.9,2.8-7.4 c0.5-1.4,0.8-2.8,0.9-4.3c0.2-2.4,0-4.8,0-7.2c0.2,0,0.4,0,0.6,0c0.1,0.8,0.2,1.6,0.3,2.4c1.2-8.3,2.1-16.6,1.8-25 c-0.3-6.6-1-13.3-4-19.3c-2.9-5.7-6.1-11.3-9.6-16.7c-4.9-7.6-8-15.6-6.7-24.8c0-0.2-0.1-0.5-0.2-1c-2.6,2.4-4.4,5.1-5.8,8 c-5.2,10.3-7.1,21.3-5.3,32.7c1.6,9.8,3.3,19.6,5.4,29.2c2,8.6,6.2,16.4,10.9,23.9c1.7,2.8,3.4,5.6,5,8.4c0.2-0.1,0.4-0.2,0.6-0.2 c-0.8-3-1.3-6.1-2.5-8.9c-2.4-5.7-5.1-11.2-7.7-16.8c-0.4-0.9-0.8-1.8-1.2-2.7c0.2-0.1,0.3-0.1,0.5-0.2c4.1,5.8,7.2,12.2,9.8,18.8 c-0.8-4.5-1.7-9-2.5-13.5c-1.1-5.9-2.2-11.8-3-17.7c-0.5-3.7-1.6-7.1-3.4-10.3c-1.3-2.4-3-4.7-4.5-7c-0.9-1.4-1.8-2.9-2.7-4.4 c0.2-0.1,0.4-0.2,0.5-0.3c3.6,3.1,5.8,7.3,8.9,11c-1.7-8.6-3.4-17.2-5.1-25.7c0.3-0.1,0.5-0.1,0.8-0.2c0.8,2.8,1.6,5.6,2.6,8.8 c0.6-1.2,1-2,1.3-2.7c0.2,0,0.3,0.1,0.5,0.1c-0.1,1.4-0.1,2.9-0.5,4.3c-0.5,1.6-0.4,3,0,4.6c0.7,3.4,1.4,6.8,1.9,10.3 c0.9,6.5,1.7,13.1,2.6,19.7c0.2,1.3,0.4,2.6,0.7,3.8c0.3,1.2,0.6,2.3,1,3.4c0.7-6.3,2-12.2,5.7-17.7 C326.1,269.3,326.2,269.4,326.2,269.5z M201.9,274.6c-0.4-0.3-0.8-0.5-1.2-0.5c-4.7-0.5-9.3-1.1-14-1.6c-1.3-0.1-2.8,0.1-4,0.6 c-2.7,1-5.2,2.4-7.8,3.5c-0.5,0.2-1,0.3-1.9,0.5c1.9-3.1,4.8-4,7.8-5.6c-2-0.5-3.6-0.9-5.1-1.3c-2.1-0.5-4.2-1.2-6.4-0.4 c-3.1,1.1-6.2,2.1-9.4,3.1c-0.4,0.1-0.9,0.2-1.8,0.3c2.6-3.1,6.1-3.5,9.1-5.1c-3.6-1-7.1-2.4-10.6-2.4c-3.5,0-7.1,1.3-10.6,2 c-0.1-0.2-0.1-0.4-0.2-0.6c1.8-0.8,3.6-1.7,5.6-2.6c-3.8-1.8-7.7-2.7-10.5-5.8c4.1,1.2,8.3,2.5,12.4,3.7c0-0.2,0.1-0.3,0.1-0.5 c-2.3-2.5-4.7-5-7-7.4c0.2-0.2,0.3-0.4,0.5-0.5c2.1,1.8,4.3,3.4,6.2,5.3c4.5,4.6,10.4,5.8,16.4,6.6c-3-2.9-5.5-6.1-6.5-10.3 c1.7,2,3.1,4.2,4.8,6.1c3.4,3.9,7.2,7.3,13,6.9c-0.3-0.9-0.5-1.8-0.8-2.7c0.2-0.1,0.3-0.3,0.5-0.4c1.8,3.9,5.1,4.7,8.8,5 c4.1,0.3,8.2,0.8,12.4,1.3c-3.8-1.9-7.5-3.5-11.2-5.1c-1-0.4-2.1-0.8-3.1-1.2l0,0.1c0,0-0.1,0-0.1,0c0,0,0,0,0,0 c-1-0.7-1.9-1.4-2.9-1.9c-11.4-6.7-23-12.6-36.1-15.1c-6.8-1.3-13.7-2.6-20.7-2.3c-3.5,0.1-6.9,0.8-10.5,1.9 c3.5,2.7,6.9,4.9,9.9,7.6c4.3,3.9,8.3,8.1,12.6,12.1c5.7,5.4,12.2,9.7,20.1,10.9c5.8,0.9,11.8,0.8,17.7,1c2.2,0.1,4.5-0.4,6.7-0.7 c0,0,0,0,0,0c0,0,0,0,0,0l-0.1,0C190.4,279.1,196.1,276.7,201.9,274.6z M121.2,314.8C121.2,314.8,121.2,314.8,121.2,314.8 L121.2,314.8z M153.2,302.7c-0.8,0.1-1.6,0.2-2.4,0.3c-3.2,0.6-6.3,1.3-9.5,1.7c-2.6,0.4-4.8,1.4-6.7,3.2c-1.5,1.4-3,2.7-4.5,4.1 c-0.2-0.2-0.4-0.3-0.6-0.5c1.3-1.8,2.6-3.6,3.9-5.3c-7.6-1.8-13.5,2.3-19.4,6.3c-0.2-0.3-0.3-0.5-0.5-0.8c2-1.7,3.9-3.4,5.9-5.1 c0-0.2-0.1-0.4-0.1-0.6c-3.7,0.5-7.5,0.9-11.2,1.5c-0.9,0.2-1.7,1.1-2.5,1.8c-2,1.6-3.9,3.2-5.9,4.8c-0.2-0.2-0.3-0.4-0.5-0.5 c1.4-1.6,2.8-3.2,4.4-5.1c-4.2,1.3-8,2.4-11.8,3.5c-0.1-0.2-0.2-0.4-0.3-0.6c2.7-1.2,5.3-2.4,8.4-3.9c-1.8-0.6-3.1-1-4.3-1.4 c0-0.2,0.1-0.4,0.1-0.6c6.6,1.5,13,0,19.6-1.1c-1.1-0.8-1.9-1.4-2.8-2c0.1-0.2,0.2-0.3,0.2-0.5c6.1,2.1,12.2,2.9,18.9,2.1 c-1.7-1.1-3.1-1.9-4.5-2.8c2.5,0.3,4.8,0.9,7,1.7c2.4,0.9,4.8,0.6,7.2,0.3c2.3-0.3,4.6-0.6,6.9-0.9c-2.8-0.7-5.6-1-8.3-1.4 c-5.6-0.7-11.2-1.7-16.8-2.1c-14.8-0.9-28.3,3.5-41,10.7c-1.8,1-3.4,2.5-5.1,3.8c5.1-0.5,9.9,0,14.7,1.3c2.7,0.8,5.6,1.4,8.4,2 c5.1,1.1,10-0.4,15-1c1.9-0.2,3.8-0.5,5.6-0.7c0,0,0,0,0,0c0.5-0.2,1.1-0.4,1.6-0.5l0.1-0.1l0,0.1c0.8,0,1.6,0.2,2.4,0.1 c1.6-0.3,3.2-0.8,4.8-1.2C138.2,310.8,145.9,307.2,153.2,302.7z M131.2,323c0,0.2,0.1,0.4,0.1,0.5c1.1-0.2,2.2-0.4,3.2-0.7 c-0.1-0.3-0.1-0.5-0.2-0.8C133.3,322.4,132.2,322.7,131.2,323z M140.2,322.1c-3.6,0.3-6.2,2.9-9.7,4.1c0.4-0.7,0.7-1.1,1-1.6 c-2.5-0.9-6.2,1-8.2,4.1C129.1,326.8,135.6,327.1,140.2,322.1z M162,325.6c-4.1,1.1-6.7,3.6-9.5,5.7c-2.8,2-4.3,4.5-4.8,7.9 c-0.4,2.4-1.4,4.7-2.1,7c-0.2-0.1-0.4-0.1-0.7-0.2c0.5-2.9,1.1-5.9,1.8-9.4c-3.5,3.3-6.9,6.1-9.6,9.4c-2.7,3.3-4.6,7.2-7.2,11.4 c0.6-2.5,1-4.4,1.5-6.4c-5.8,2.7-9.6,7.4-12.7,12.7c-0.2-0.1-0.3-0.2-0.5-0.4c0.6-1.4,1.2-2.8,2.1-4.8c-3.7,2.6-7,4.9-10.2,7.1 c1.4-3.6,4.7-5.3,7.1-8c-0.4-0.2-0.9-0.4-1.6-0.7c2.1-0.9,3.8-1.7,5.5-2.5c1.7-0.8,3.4-1.7,5-2.7c1.5-1,2.9-2.2,4.3-3.3 c-0.1-0.1-0.2-0.3-0.3-0.4c-1.8,0.4-3.7,0.7-5.5,1.1c0-0.2-0.1-0.4-0.1-0.5c1.3-0.4,2.5-1,3.8-1.3c5.4-1.2,9.5-4.2,12.6-8.7 c-1.6,0.5-3.2,1-4.8,1.4c2.6-1.5,5.3-2.9,7.8-4.5c1.7-1.1,3.3-2.4,4.9-3.6c-0.1-0.2-0.2-0.3-0.3-0.5c-0.3,0.1-0.6,0.2-0.9,0.3 c-3.4,1.8-6.9,3.4-10.1,5.4c-6.7,4-13.7,7.6-18.5,14.1c-0.2,0.3-0.5,0.5-0.7,0.7c-1.3,1.2-2.9,2.2-3.9,3.7 c-2.9,4.5-5.6,9.2-8.2,13.9c-1.2,2.2-2,4.7-2.9,7.1c2.1-1.1,3.7-2.3,5.3-3.6c5.4-4,11.4-6.6,17.5-9.3c13.8-6.1,25-14.9,31.5-29 C158.8,331.9,160.3,329,162,325.6z M173.2,317.4c-0.1-0.1-0.1-0.3-0.2-0.4c-0.4,0.2-0.8,0.5-1.2,0.7 C172.3,317.6,172.8,317.5,173.2,317.4z M187.3,346.4c-1.3,8.8-4.1,17.3-6.9,20.7c0.9-2.5,1.3-4.7,2.2-6.8c3.1-7.2,4.1-14.9,2.9-22.7 c-0.5-3.2-0.6-6.5-0.9-9.8c0.2,0,0.4-0.1,0.6-0.1c0.3,2.3,0.7,4.6,1,6.9c0.4,2.7,0.8,5.3,1.1,8c0.4-9.2-0.8-18.4-1.6-27.5 c-1.5,3.6-2.8,7.3-4.1,11c-1.3,3.4-1.9,6.8-0.1,10.3c0.2,0.4,0.2,1,0.2,1.4c-0.1,0.1-0.2,0.1-0.4,0.2c-0.6-0.8-1.3-1.7-2.1-2.8 c-0.3,1.6-0.5,2.9-0.9,4c-1.5,3.8-0.7,7.3,1.1,10.7c0.6,1.1,1.1,2.2,1.6,3.3c0.2,0.5,0.3,1,0.4,1.4c-0.2,0.1-0.4,0.2-0.5,0.2 c-1.4-2.2-2.9-4.4-4.6-7c-1.6,6.6-3.1,12.8-4.7,19.5c-0.1-1.3-0.2-2.1-0.3-3.2c-1.8,2.9-3.4,5.5-4.9,8c-0.2-0.1-0.3-0.2-0.5-0.3 c1-2.8,2-5.6,3-8.4c-0.5,0.1-1,0.2-1.8,0.4c1.7-2.8,3.5-5.2,4.7-7.9c1.1-2.6,1.6-5.5,2.4-8.3c-0.1,0-0.3-0.1-0.4-0.1 c-2.3,2-4.6,3.9-6.9,5.9c-0.2-0.2-0.4-0.4-0.5-0.6c2.3-2.5,4.5-5.2,6.9-7.5c3.2-3.1,2.6-7.1,3.7-10.7c-0.2-0.1-0.4-0.2-0.5-0.3 c-1.8,1.3-3.6,2.7-5.4,4c-0.2-0.3-0.5-0.6-0.7-0.8c1.1-0.9,2.1-1.8,3.2-2.6c3.6-2.6,5.5-6.2,6.5-10.5c0.6-2.5,1.7-5,2.5-7.4 c-0.7,0.6-1.4,1.2-1.9,1.8c-6.1,7.1-10.3,15.3-13.1,24.1c-1.3,4.2-3,8.3-2.2,12.9c0.2,1.1-0.2,2.3-0.4,3.5c-0.1,0-0.3,0-0.4,0 c-0.1-0.4-0.2-0.7-0.3-1.1c-0.1,0-0.2,0-0.4,0c0,10.4,0,20.8,0,31.3c5-5,10-9.9,14.9-14.9C186.3,366.8,188,357.3,187.3,346.4z M187.7,344.4c-0.1-0.4-0.1-0.8-0.2-1.2c0,0.4,0,0.8,0.1,1.3C187.6,344.4,187.6,344.4,187.7,344.4z M245.3,282.1 c-5.3,5-9.7,10.5-12.5,17.2c-0.7,1.7-1.2,3.4-0.2,5.2c0.5,0.9,0.5,1.9,0.8,2.9c-0.1,0.1-0.2,0.1-0.3,0.2c-0.7-0.9-1.3-1.8-2.2-2.9 c-0.5,1.6-0.7,2.9-1.2,4.1c-1.9,4.7-0.7,8.6,2.6,12.2c0.3,0.3,0.5,0.7,0.8,1c1.4,1.7,2.7,3.5,4.1,5.2c-0.2,0.1-0.3,0.3-0.5,0.4 c-1.5-1.5-3.1-2.9-4.6-4.4c-1.4-1.5-2.7-3.2-4.2-5c-0.3,1.6-0.5,2.8-0.7,4c-1.1,10.9-2,8.8,4.7,17.9c1.4,1.8,2.7,3.7,4.1,5.6 c-0.2,0.1-0.3,0.3-0.5,0.4c-3.6-2.6-6.2-6.1-9.1-9.5c-0.3,2.1,0,4.1-0.3,6c-0.7,5.2,0.5,9.6,4.2,13.6c1.3,1.5,2,3.6,2.9,5.4 c-2.5-2.7-4.9-5.5-7.2-8c-1,3.8-2,7.8-3.2,11.6c-0.5,1.6-0.5,3-0.1,4.5c0.6,2,1,4,1.5,6c-0.2,0.1-0.4,0.1-0.6,0.2 c-0.9-1.8-1.7-3.5-2.8-5.6c-1,1.9-1.7,3.4-2.4,4.9c-0.8,1.4-1.6,2.8-2.4,4.3c-0.2-0.1-0.3-0.2-0.5-0.3c0.9-2.7,1.8-5.3,2.8-8.2 c-2.1,1.1-3.8,2-5.6,3c-0.2-0.2-0.4-0.5-0.7-0.7c7.4-3.9,10.3-10.3,10.8-18.5c-2.2,2.1-4,4-6.1,5.7c-2,1.7-4.2,3.3-7.2,3.3 c0.2-0.5,0.7-0.7,1.1-1c2.2-1.7,4.4-3.4,6.5-5.3c2.2-2,5-3.8,6.1-6.3c1.1-2.4,0.3-5.6,0.4-8.5c0-1.1,0-2.3,0-3.4 c0-0.5-0.1-1.1-0.2-2c-4.2,5.8-8.4,11-14,14.8c0.3-0.8,0.7-1.4,1.2-2c3-3.7,5.8-7.6,9-11.1c5.1-5.5,4.9-12.3,5.5-19.3 c-4.3,3.3-7.5,7.4-12,9.9c0-0.5,0.2-0.8,0.4-1c3.6-3.7,7.1-7.3,10.7-11c0.7-0.7,1.5-1.4,1.7-2.2c0.8-3.1,1.4-6.2,2.1-9.8 c-3.1,2.4-5.8,4.5-8.6,6.6c2.6-3.2,5.4-6,8.1-8.9c1.1-1.2,2.2-2.4,2.9-3.9c2.5-5.8,5.9-10.8,10.4-15.2c0.4-0.4,0.8-0.9,1.5-1.7 c-8,2.3-14.2,6.5-19.6,11.9c-0.3,0.3-0.4,0.7-0.5,1.1c0.4-0.1,0.7-0.2,0.6-0.2c-3.6,6.2-7.3,12.7-10.9,19c0.8-4,2.8-7.8,5.1-11.5 c1.1-1.8,2.3-3.7,3.4-5.5c-0.5,0.5-1.2,0.9-1.5,1.5c-2.1,3.3-4.5,6.4-6.3,9.9c-5.7,10.9-8.8,22.5-8.2,34.9c0.3,5,0.7,10.1,1.7,15 c2.2,10.7,1.7,21.1-1.5,31.4c-0.7,2.1-1.2,4.3-1.8,6.4c5.8-4.6,12.3-7.7,18.8-10.9c10.3-5,16.9-13.1,20.3-23.9 c3.3-10.3,3.3-20.9,2.9-31.5c-0.1,0.7-0.1,1.5-0.1,2.3c0.3,6.1-0.8,11.9-3.1,17.6c-0.4,1-1.1,2-1.7,3c0.1-0.6,0.2-1.2,0.4-1.8 c3.3-9,4-18.2,2-27.7c-1.6-7.6-2.5-15.3-2.3-23.1c0-0.9,0.2-1.8,0.3-2.7c0.6,3.5,0.7,6.9,1,10.2c0.3,3.4,0.6,6.7,1.1,10.1 c0.5,3.3,1.2,6.5,1.8,9.7c0.3-1.4,0.3-2.7,0.1-3.9c-0.7-6-1.6-11.9-2.2-17.9c-0.8-7.5-0.4-15,2.9-22 C245,283.1,245.2,282.5,245.3,282.1z M216,150.1c-2.8-0.1-3.3,0.6-2.6,3.6c2.4,0,4.7,0,7.4,0c-0.3,0.5-0.4,0.9-0.7,1.4 c2.5,1.4,4.9,2.7,7.3,4.1c-0.1,0.2-0.1,0.4-0.2,0.6c-2.3-0.4-4.9,0.2-6.9-1.8c-1.9-2-4.5-2.5-7.4-3.1c0.4,2.7,0.8,5.1,1.2,7.5 c6.5,2.7,12.8-0.1,19.2-0.3c-3-3.2-5.9-6.4-9.2-9.2C222,151,219.1,150.2,216,150.1z M224,110.6c0.4,1.8,1.3,1.6,2.5,1.1 c4.2-1.7,8.5-3.4,12.8-5.1c-0.2,0.3-0.5,0.7-0.8,1c1.2-0.2,2.5-0.4,3.7-0.7c1.3-0.3,2.5-0.8,3.7-1.2c0.1,0.3,0.2,0.5,0.3,0.8 c-3,1.3-6,2.7-9.1,4c0.5,0.2,1,0.4,1.7,0.7c-4.5,1.3-9.2-0.2-13.3,2.4c0.4,0.8,0.7,1.5,1,2.2c0.4,0.8,0.8,1.5,1,2 c11.6,0.7,18.5-6.5,25.5-13.9c-3.3,0.3-6.2,0.4-9.2,0.7c-4,0.5-7.9,0.9-11.8,1.7C229.2,107.1,226.3,108.5,224,110.6z M217.8,102.6 c-0.2-1-0.3-2-0.5-3.1c-5.2,1.5-10.2,3-15.8,4.6c4,1.1,7.5,1.9,10.2,4.5c-6.1-2.4-12.3-4.4-19.2-3.2c-0.8,2.2-1.6,4.5-2.3,6.6 c3,1.2,5.9,2.1,8.5,3.7c3,1.8,6.1,2.7,9.5,3.2c1,0.1,2.1,0.3,3.1,0.5c1,0.2,2,0.4,3,0.6c-3,1.5-5.8,0.2-8.8,0.1 c0.2,0.4,0.3,0.6,0.4,0.8c4.9,5.2,6.9,11.3,6.7,18.3c-0.1,2.8,0.2,5.7,0.4,8.6c0.3,0.1,0.6,0.2,0.8,0.3c1-1.4,2.5-2.6,2.9-4.1 c1.1-4.5,3.4-8.4,5.8-12.2c3.9-6.1,4.2-12.1,0-18.3C220.2,110.2,218.5,106.6,217.8,102.6z M200.4,159.9c0.6-1.7,1.2-3.5,1.3-5.3 c0.2-5.1,0.2-10.2,0.2-15.4c0-3.7-0.9-7-3.8-9.6c-3.6-3.2-7.1-6.6-10.8-10c-1,1.9-1.9,3.9-2.9,5.7c1.3,1.2,2.5,2.2,3.6,3.1 c-0.1,0.2-0.2,0.3-0.4,0.5c-1.3-0.8-2.6-1.6-3.8-2.3c-3.6,4.1-7,8.1-10.5,12.1c-0.5,0.6-0.7,1.3-1.1,2c-0.6,0.3-1.2,0.6-1.7,1 c-2.2,1.5-4.4,3.1-6.7,4.5c-2.6,1.5-2.7,1.5-2,4.4c0.5,2.5,1.2,5,1.8,7.6c-2.6-2.9-3.1-6.4-2.9-10.1c-2.9,0.6-5.5,1.1-8.2,1.7 c0,0.4-0.1,0.7,0,1c0.9,4.1,0.7,8.1,0.2,12.2c-0.2,1.9,0,4,0.4,5.9c1.3,5.7,4.3,10.8,5.1,16.6c0.3,2.1,2.1,3.4,4,4.1 c1.7,0.6,3.5,1,5.3,1c3.1,0,6.2-0.5,9.4-0.6c3-0.1,6.1,0,9.3,0c1.5-4.2,4.6-7.3,7.8-10.4c2.5-2.4,4.4-5.3,4.2-8.9 C197.9,166.9,199,163.4,200.4,159.9z M190.7,102.4c0.7-2,0.7-4.2,1-6.3c-0.2-0.1-0.4-0.3-0.6-0.4c-1.8,1.2-3.7,2.1-5.4,3.5 c-4,3.3-6.6,7.6-8.3,12.4c-1.7,5-4.8,8.5-9.4,11c-1.6,0.9-3.3,2.5-4.1,4.2c-2.2,4.9-5.2,9.2-8.3,13.5c-1.4,1.9-2.3,4.2-3.7,6.7 c1.4-0.1,2.2-0.1,2.9-0.2c3.8-0.4,7-2.4,10.2-4.3c5.7-3.6,9.5-9.1,13.8-14.1C185.3,120.9,187.7,111.5,190.7,102.4z M121.2,129.1 c0.8-0.4,1.7-0.5,2.4-0.3c3.1,1,6.3,2,9.3,3.4c5.1,2.4,10,5.3,15.1,7.6c3.8,1.7,3.9,1.4,6.3-1.9c0.5-0.7,1-1.4,1.4-2.1 c-8.4-5.4-14.1-10.9-15.5-15.4c5.4,5.1,9.6,11,16.1,14.3c1.4-0.8,1.5-1.9,1.1-3.2c-1.6-4.7-3.5-9.1-7.2-12.5 c-1.7-1.6-3.5-3.2-5.1-4.9c-1.8-1.9-3.4-3.9-3.7-6.6c0.2,0.2,0.5,0.3,0.7,0.5c2.6,2.9,5,6,7.7,8.7c2.7,2.8,5.2,5.6,6.8,9.2 c0.7,1.8,1.3,3.6,2.1,5.8c1.3-2.6,2.1-5,3.6-7c1.3-1.9,1.3-3.7,1-5.7c-0.1-0.9-0.4-1.9-0.6-2.8c-1.9-6.4-3.8-12.8-5.9-19.2 c-0.9-2.7-1.9-5.4-3.4-7.9c-2.9-4.8-6.7-8.9-12.3-10.7c-4.5-1.4-8.7-0.1-10.8,3.9c-1.3,2.5-2.1,5.3-2.8,8.1c-0.7,2.4-0.8,5-1.7,7.3 c-1.1,3-1.6,6-1.2,9.2c0.1,1,0.2,2.1,0.2,3.1c0.1,4.5-1.3,6.7-5.6,8.4c-1.2,0.5-2.5,0.8-3.7,1.1c-2.1,0.5-4.3,0.8-6.3,1.5 c-5.9,1.9-9.6,5.8-10.8,11.9c-0.6,3.1-0.5,6.3,1.9,8.9c3.4,3.6,7.5,6.4,12,8.6c0.8,0.4,2.3,0.5,2.9,0c2.2-1.5,4.1-3.4,6.2-5.2 c-4.7-1.4-8.6-3.5-11.7-7.5c4.1,2.1,7.8,4.2,11.7,6.1c0.8,0.4,2,0.3,2.9,0c8.5-2.9,17.1-3.9,25.8-0.8c1.5,0.5,1.3-0.4,1.6-1.4 c-6-0.8-10.9-3.8-15.9-6.6c-3.6-2-7.4-3.4-11.1-5C123.5,129.5,122.3,129.4,121.2,129.1z M126.3,161.1c0.2,0,0.5,0,0.7,0.1 c9.2,3.2,16.4-0.2,22.6-7c1.6-1.7,1.6-3.4,0.6-4.8c-2.9,0.9-5.5,2-8.3,2.4c-3.6,0.5-7.2,0.3-10.8,0.4c1.9-1.6,4.3-1.4,6.6-1.5 c3.6-0.2,7.4,0.6,10.3-2.5c0.2-0.2,0.5-0.2,0.7-0.3c1.5-0.4,1.8-1.4,1.4-2.8c-0.3-0.1-0.6-0.3-0.9-0.4c-4.8-1.7-9.8-1.3-14.7-0.8 c-6.6,0.7-12.4,3.1-17.1,8c-2.9,3-4.4,6.5-3.7,10.6c0.8,4.5-0.4,8.4-3.1,12c-2.2,3-4.3,6.2-5,10c-0.9,5.2-1.5,10.5-3.1,15.6 c-1.1,3.6,0.2,5.3,4,5.2c3.3-0.1,6.8-0.7,9.9-1.8c5.3-1.8,9.6-5.5,13.7-9.3c5-4.6,10-9.1,13.3-15.3c2-3.7,4.2-7.4,6.2-11.1 c0.3-0.6,0.3-1.3,0.4-2c-7.4,5.3-14.4,10.9-24.1,10.3c0.1-0.2,0.1-0.3,0.2-0.4c0.3-0.1,0.7-0.3,1-0.3c8.5-1,15.2-5.6,21.6-10.8 c0.5-0.4,1.2-1,1.3-1.5c0.3-2.7,0.5-5.4,0.7-8.3c-0.5,0.3-0.5,0.3-0.6,0.3c-0.4,0.4-0.7,0.8-1.1,1.2c-3.3,3.6-7.2,6.4-12.1,7.2 C133.2,164.1,129.5,163.8,126.3,161.1z M96.1,204.4c2-1.7,3.7-3.1,4.1-5.9c0.4-2.8,1.4-5.5,2.2-8.5c-3.7-0.2-7-0.5-10.3-0.5 c-3.5,0-6.6,1.4-9.1,3.9c-1.5,1.5-2.9,3-4.3,4.6c-3.9,4.6-8.7,7.8-14.6,9c-3.5,0.7-7.1,1-10.6,0.9c-6.4,0-12.7,0.9-19.3,1.8 c9.7,5.7,18.8,12,30.7,9c-4.6-0.8-9.2-1.7-13-4.7c0,0,0,0,0,0c-0.3-0.2-0.5-0.3-0.8-0.5c0.3,0.1,0.7,0.2,1,0.3c0,0,0,0,0,0 c3.3,1.1,6.5,2.4,9.8,3.3c3.1,0.8,6.2,1.6,9.2-0.1c-1.3-0.8-2.5-1.7-3.8-2.5c0.5,0.1,1.1,0.1,1.6,0.3c3.3,1.6,6.5,1,9.7-0.6 c2.2-1.2,4.5-2.3,6.8-3.5c-3,0-6,0.2-9,0c-2.7-0.2-5.4-0.7-7.5-2.6c0.3,0,0.6,0.1,0.9,0.1C79.1,210.9,88.1,211.3,96.1,204.4z M64.1,178c8.8,3.6,17.7,4.4,26.6,0.6c3.9-1.7,7.7-3.6,11.4-5.7c2.3-1.3,4.4-2.9,6.6-4.4c-10.6,1.6-21.1,4.1-31.4-0.9 c11.5,3.5,22.7,1.3,34.1-0.9c-0.3-2.1-0.5-3.8-0.6-5.2c-4.8-0.5-9.2-0.7-13.6-1.5c-2.6-0.5-4.9-2-7.4-3.1c0.3,0,0.6,0,0.9,0.1 c5.6,2.3,11.4,3,17.3,3.1c0.7,0,1.4,0,2,0c-5.6-1.6-10-4.8-13.8-8.9c4.7,2.6,8.9,6.3,14.5,7.3c0.6-1.7,1.2-3.4,1.8-5.1 c-0.8-0.4-1.5-0.7-2.1-1c-4.3-2.2-8.4-4.8-11.5-8.4c-1.9-2.2-4.2-2.9-6.8-3.2c-2.9-0.2-5.7,0.6-8.3,1.9c-3.7,2-7.6,3.4-11.8,3.9 c-4.1,0.5-8.2,1.4-12.3,2.1c-4.2,0.8-6,2.9-6,7.2c0,1.7,0.5,3.4,1,5c0.8,2.6,2.2,5.2,2.5,7.9C57.8,173.5,60.1,176.4,64.1,178z M56.2,176.9c-4.1,0.1-8.2,0.6-12.2,0.4c-5.8-0.3-11.2-2-15.8-5.8c0.5,2.5,2.8,3.4,4.7,4.5c7,3.8,14.7,3.9,22.4,3.1 c1.2-0.1,2.4-0.5,3.7-0.7c0-0.2,0-0.5,0-0.7C58,177.4,57.1,176.9,56.2,176.9z M91.1,119c2.9,2.5,2.9,2.5,3.1,5.4 c0.7,0.2,1.5,0.4,2.5,0.6c-1.8-3.1-1.6-3.8,1.3-5.3c-0.1,0-0.2-0.1-0.4-0.1c0.1,0,0.3,0,0.4,0.1c0.3-0.9,0.7-1.7,1-2.6 c-0.2-0.1-0.4-0.1-0.6-0.2c0.2-0.1,0.4-0.2,0.6-0.4c0,0,0,0,0,0c-0.1-0.4-0.3-0.7-0.4-1.1c0.4,0,0.9,0.1,1.4,0.2 c-0.2-0.6-0.3-0.9-0.4-1.2l-0.1-0.1l0.1,0c0.4-0.9,0.7-1.7,1.1-2.6c0,0,0,0,0,0c0,0,0,0,0,0l0,0h0l-0.1,0l0.1,0 c0.2-0.3,0.3-0.6,0.5-1c0.7-1,2.2-1.6,2.1-3.2c1.5-0.3,2.9-0.7,3.1-2.6c0.7-0.4,1.4-0.7,2.1-1.1c-0.2-0.2-0.3-0.3-0.5-0.5 c0,0,0,0,0,0c0,0,0,0,0,0c-0.2-0.2-0.3-0.4-0.5-0.5l0,0c0.2,0.2,0.3,0.4,0.5,0.5c0.2,0.2,0.4,0.3,0.5,0.5l0,0c0,0,0,0,0,0l0,0 c0.5-0.3,1-0.6,1.5-1c-0.1-0.4-0.2-0.8-0.4-1.2l-0.1,0l0.1,0l0,0c0.1,0.4,0.2,0.8,0.4,1.2l0,0c1.1-0.4,2.2-0.8,3.3-1.2 c-0.2-0.8-0.4-1.5-0.5-2.1c1,0.4,1.3,2.7,3,1.1l0-0.1l0,0.1l0,0c0.3,0,0.8,0,0.8,0c0.1-2.1,1.6-2.7,3.3-3.2 c-0.1-0.2-0.2-0.3-0.3-0.5c0.1,0.1,0.3,0.2,0.4,0.3l0,0c0.4-1.8,0.9-3.3,2.8-4.4c1.1-0.6,1.6-2.2,2.4-3.3c-3.6,1.2-3.6,1.2-6.7-2.1 c-0.3,0.5-0.7,0.8-0.8,1.3c-0.4,2.2-1.6,3.1-3.8,2.9c-0.6,0-1.6,0.5-1.8,1.1c-0.7,1.5-1.6,2-3.1,1.4c-1.3-0.5-1.9-0.1-2,1.3 c-0.2,3-0.3,3-3.2,3.9c-0.4,3.3,0,3.6-5.6,3.1c0,1.2,0.4,2.7-0.1,3.4c-0.7,0.8-2.2,1-3.2,1.4c0.2,1.2,0.9,2.5,0.5,3.2 c-0.5,0.9-1.8,1.3-2.8,1.9C94.1,116.6,94.1,116.6,91.1,119z M121,105.3L121,105.3c0.2,0.1,0.4,0.3,0.5,0.4c0.2-1,0.2-2.1,0.5-3.1 c0.6-2.4,1.4-4.8,2-7.3c-0.6,0.4-1.7,0.8-1.7,1.2c0,2.4-1.4,3.5-3.5,4.1c0.2,0.6,0.3,1,0.4,1.4c1.1,3,1,3.3-1.9,4.8 c-0.6,0.3-1,1-1.4,1.6c-0.3,0.4-0.4,1.3-0.6,1.3c-2.8,0.3-3.8,3-5.9,4.1c-1.5,0.8-3.6,0.6-4.5,2.7c-0.2,0.5-1.4,0.4-2.1,0.7 c-0.6,0.2-1.3,0.5-1.7,1c-1.2,1.5-2.2,3.1-3.3,4.7c1.4,1.4,2.5,1.5,2.9-0.2c0.4-1.5,1.6-1.9,2.6-2.5c0.8-0.5,1.6-1,2.4-1.5l0,0 c1.4-0.3,2.7-0.6,4.1-0.9c0,0,0.1-0.1,0.1-0.1c0.9,0.2,2,0.6,1.6-1.1c0.4,0.2,0.9,0.4,1.3,0.6c0.9,0.6,1.2,0,1.4-0.7 c0.5,0,0.9,0,1.4,0c-0.2-0.2-0.3-0.3-0.5-0.5c0,0,0,0,0,0c0,0,0,0,0,0c-0.2-0.2-0.3-0.3-0.5-0.5c-0.2-0.2-0.3-0.4-0.5-0.6 c-0.1,0-0.3-0.1-0.4-0.1c0.2,0,0.3,0,0.5,0c0.2,0.2,0.3,0.4,0.5,0.6c0.2,0.2,0.3,0.3,0.5,0.5c0.2,0.2,0.3,0.4,0.5,0.5c0,0,0,0,0,0 c0,0,0,0,0,0c0.4-0.1,0.8-0.1,1.4-0.2c-0.3-0.5-0.5-0.9-0.8-1.3c0.4,0.2,0.9,0.3,1.2,0.5c1,0.8,1.3,0.2,1.4-0.6 c0.6,0.3,1.3,0.7,1.5-0.5c0.9-0.2,1.6-0.5,1.1-1.6c1.2-0.7,0.5-1.4,0-2.1c1.7-0.6,0.5-1.4,0-2.1c1.6-1,0.3-2.1,0-3.2l0,0 c0,0,0,0,0,0c0,0,0,0,0,0l0,0c0,0,0,0,0,0C121.4,105.6,121.2,105.4,121,105.3z M99.1,117.1C99.1,117.1,99.1,117.1,99.1,117.1 c0-0.1,0-0.1,0-0.1C99.1,117,99.1,117,99.1,117.1z M102.6,115.7c0.5-0.4,1.3-0.7,1.6-1.3c0.7-1.6,1.8-2.1,3.5-2.2 c0.7,0,1.7-0.7,1.9-1.2c0.7-1.9,2.1-2.4,4-2.3c0.9-2.4,0.9-2.4,3.4-3.8c0.4-0.2,0.6-0.7,0.9-1.1c-0.4-0.2-0.8-0.7-1.2-0.6 c-1.2,0.2-2.5,0.3-3.5,0.9c-3.1,2.1-6.1,4.3-8.9,6.7c-1.2,1-1.6,2.9-2.4,4.4C102.1,115.3,102.4,115.5,102.6,115.7z M119.9,97.9 L119.9,97.9C120,97.9,119.9,97.9,119.9,97.9L119.9,97.9z M88.8,126.6c-5.1-3.2-10.7-4.9-16.5-6c-4.7-1-9,0-11.9,4 c-3,4.1-6.4,7.5-10.4,10.5c-1.4,1-1.7,2.3-1.4,3.9c0.7,3.8,3,6.4,6.4,8.1c0.5,0.2,1.1,0.2,1.7,0.1c2.4-0.4,4.8-0.9,7.2-1.3 c1.2-0.2,2.5-0.5,3.9-0.8c-2.1-0.8-4-1.6-5.8-2.3c4,0.1,7.7,0.5,11.5,0.9c2.9,0.3,5.5-0.6,7.8-2.3c-3.4,0.8-6.8,1.4-10.1-0.2 c6.6,1.4,12.4-2.4,18.8-2.2c0-0.2,0-0.4,0-0.6c-1-0.6-2-1.2-3-1.7c3.3-0.1,5.5,2.9,8.4,2.7c0.3-3.5,0.6-6.8,0.9-9.9 C93.7,128.5,90.9,128,88.8,126.6z M71.5,183.5c-5.4,2.7-11,5.2-16.2,8.3c-4.9,2.8-9.7,5.7-15,7.7c-3.3,1.2-6.3,3.3-9.3,5.1 c-0.7,0.4-1.1,1.1-1.8,1.7c4.6,1,8.8,0.1,13-0.3c5.9-0.5,11.8-0.5,17.7-1c6.3-0.5,11.7-3,16-7.7c1.8-2,3.6-4,5.6-5.9 c3.9-3.7,8.6-5.2,13.9-4.4c2.3,0.3,4.6,0.8,6.8,1.1c0.8-3.1,1.5-5.9,2.3-8.8c-0.2,0-0.3-0.1-0.5-0.1c0.2-0.2,0.3-0.3,0.5-0.5 c0,0,0,0,0,0c1.4-2,2.7-4.1,4.1-6.1c-3.1,2.4-6.1,4.7-9.2,7.1c-1.2,0.9-2.4,1.7-3.6,2.6c0.3-0.6,0.6-1.3,1.1-1.8 c1.1-1.2,2.4-2.2,3.5-3.3c0,0,0,0,0,0c-1,0.4-2.1,0.8-3.1,1.3c-7.5,3.8-15.3,6.1-23.9,4.6C72.6,183.2,72,183.3,71.5,183.5z M143.1,39.9c-2.9-2.3-6.4-3.6-10.4-3.7c0.8,0.5,1.5,1.1,2.3,1.6c5.3,3.5,10.7,6.8,15.9,10.5c6.8,4.8,11.6,11.1,12.8,19.5 c0.9,6.4,1.4,13,1.8,19.5c0.3,5.6-0.9,10.9-3.7,15.8c-0.2,0.4-0.5,1-0.4,1.4c0.6,2.2,1.4,4.3,2.1,6.5c2.3-4.5,4.5-8.8,6.7-13 c1.6-3.1,2.6-6.3,2.6-9.7c0-5-0.1-10.1-0.6-15.1c-0.7-7.2-3.6-13-10.1-16.9c-3.3-2-6-5-8.9-7.5C149.8,45.7,146.6,42.6,143.1,39.9z M155.8,47.4c-0.3-3.5-0.4-6.7-0.8-9.9c-0.6-5.3-3-9.6-7.2-12.8c-1.8-1.4-3.8-2.4-6.5-2.8c1.1,0.9,1.8,1.5,2.5,2.1 c5.5,4.9,8.7,11,9.1,18.4C153.1,44.6,153.7,46.1,155.8,47.4z M180.6,98.9c-0.1,0.4,0,0.8,0,1.6c1.6-1.5,2.8-2.6,4-3.9 c0.3-0.3,0.5-0.7,0.5-1.1c0.9-4.6,1.4-9.1,0.1-13.7c-0.6-2.2-1.2-4.4-1.5-6.6c-0.8-4.5-1.2-9.1-2.2-13.6c-0.8-4-3.2-6.8-7.2-8.1 c2.3,3,4.3,6.3,4.9,10.1c0.6,4.1,0.8,8.3,1.8,12.4C183.1,83.7,182.5,91.3,180.6,98.9z M172,54.1c-1.8-1.9-3.7-2.1-5.9-1.1 c-0.7,0.4-1.4,0.8-2.3,1.3c0.6,0.4,0.9,0.7,1.3,0.9c4.2,2.8,7,6.6,8.3,11.5c1.8,6.6,2.2,13.3,2,20.1c-0.1,4.6-1.2,8.9-3.4,13 c-1.6,3.1-3.5,6.1-4.7,9.3c-1.3,3.6-3,7.2-1.3,11.3c4-1.8,6.9-4.4,8.5-8.6c1.3-3.3,2.6-6.6,3.1-10.1c0.8-5.5,2-10.9,2.4-16.5 c0.2-2.9-0.8-5.8-1.2-8.7c-0.7-4.5-1.2-9-2-13.4C176.2,59.7,174.5,56.7,172,54.1z M129.5,35.8c-0.4-0.4-1.2-0.7-1.8-0.7 c-5.7-0.5-11.6,4-12.5,9.6c-1,6.5,0.1,12.8,1.1,18.5c3.5,1.9,6.7,3.3,9.6,5.3c3,2.1,3.9,5.7,4.7,9.1c1.7-0.6,3.2-1.4,4.8-1.7 c5.2-0.9,9.6,1,13.4,4.3c4.4,3.9,7.8,8.6,9.6,14.3c0.6,2,1.2,4,1.8,6c0.2,0,0.5,0,0.7,0c0.6-2.9,1.8-5.9,1.8-8.8 c0.1-6.4-0.3-12.8-0.8-19.2c-0.6-7.4-2.8-14.2-8.7-19.2c-3-2.5-6.1-4.9-9.2-7.2C139.3,42.7,133.7,40.2,129.5,35.8z M193.6,103 c3.4-0.8,6.9-1.7,10.3-2.5c1-0.2,1.8-0.6,1.4-1.8c-0.2-0.1-0.3-0.2-0.3-0.2c-3.6,0.8-7.2,1.5-10.8,2.4c-0.4,0.1-0.7,0.9-1.1,1.4 C193.3,102.6,193.5,102.8,193.6,103z M206.8,99.9c0.3-0.5,0.6-1,0.9-1.5c-0.3-0.1-0.7-0.4-0.7-0.4c-0.3,0.5-0.6,1-0.9,1.4 C206.3,99.6,206.6,99.8,206.8,99.9z M208.7,99.1c1.1-0.1,2.1-0.4,1.4-2.5c-0.9,0.8-1.5,1.3-2.1,1.8 C208.2,98.6,208.5,98.8,208.7,99.1z M213.7,96.4c0.5,0.3,1.1,0.9,1.4,0.7c1.8-0.9,0.7-2.5,0.7-4c-0.8,2.4-5.2,1.5-4.9,5 C212.8,98.6,213.5,97.6,213.7,96.4z M247,42.3c0.4,3.9,0.9,7.3,0.9,10.8c0,9.6-2.6,18.1-10.8,23.9c-2.2,1.5-4.6,2.8-7,4 c-4.4,2.2-8.2,5.1-11.5,8.8c-1.9,2.1-2,4.4-1.8,7.5c1.6-1.8,4.4-0.4,4.6-3.3c1.4,2.4,2.6-0.1,3.8,0.2c0.3-2.1,0.6-4,0.9-5.9 c0.1,0,0.2,0,0.3,0c-0.1,1.7-0.2,3.4-0.3,5c0.2,0.1,0.5,0.2,0.7,0.3c0.5-0.8,1.1-1.5,1.4-2.4c0.4-1.1,0.7-2.3,1-3.5 c0,1.2,0,2.4,0,3.9c1.2-0.9,2.1-1.6,3-2.2c6-4.6,11.6-9.7,15.6-16.3c1.8-2.9,3.2-6,3-9.6c-0.2-4-0.6-8-1-11.9 C249.6,48.5,249.1,45.4,247,42.3z M227.5,47.2c-0.9,2.7-1.6,5.5-2.4,8.2c-5.2,16.6-15.7,29.2-29.4,39.4c-1.2,0.9-1.9,1.7-1.5,3.5 c0.7,0,1.5,0,2.2-0.1c3.7-1,7.4-2,11-3.2c2.9-0.9,5.6-2.4,7.6-4.9c4.6-5.7,10.3-9.7,16.9-12.8c7-3.3,11.2-8.8,13-16.3 c1.3-5.2,0.9-10.3,0.4-15.5c-0.2-2-0.4-3.9-0.6-6.2c-1.6,0.2-3.1,0.2-4.3,0.7c-3.9,1.7-7.7,3.6-11.5,5.5 C228.1,45.7,227.8,46.5,227.5,47.2z M224.7,35c-2.5,5.2-4.8,10.1-7.1,15c-2.5,5.5-4.9,11.2-9.3,15.6c-3.8,3.8-6.8,8-9.1,12.9 c-2.7,5.6-5.7,11.2-11,14.9c-0.1,0.1,0,0.3,0,0.5c3.8-0.1,7.1-1.1,9.7-4l0,0c0-0.1,0-0.1,0-0.2c0,0.1,0,0.1,0,0.2 c0.9-1.2,1.8-2.4,2.6-3.4c0-0.1,0.1,0.3,0.4,1c0.7-0.8,1.3-1.4,1.7-2.1c0.4-0.7,0.5-1.6,0.8-2.5c0.1,0.4,0.2,0.7,0.4,1.3 c0.9-1,1.8-1.7,2.4-2.7c0.6-0.9,0.9-1.9,1.2-3c0.3-1,0.4-2,0.6-3c0.1,0,0.2,0,0.3,0.1c-0.1,1.3-0.2,2.5-0.3,3.9 c4.1-2.1,2.4-6,3.4-9.1c0,1.6,0,3.2,0,5.3c3.4-4.2,6.8-7.8,6.1-13.3c0.3,0.7,0.5,1.4,0.9,2.4C222.7,55.3,227,46.1,224.7,35z M207.4,32.3c2.2,5,3,10.1,1,15.4c-0.7,1.9-1.5,3.9-2,5.9c-1.2,4.4-2.2,8.8-3.3,13.2c0.2,0.1,0.4,0.1,0.6,0.2 c3.8-3.7,7.1-7.7,9.3-12.6c3.5-7.6,6.8-15.2,10.7-22.6c2.1-4,1.3-7.3-0.4-10.8c-1-2.1-2.7-2.7-4.8-1.7c-1.4,0.6-2.8,1.5-3.9,2.5 c-2.3,2.3-4.4,4.9-6.7,7.2C206.8,30.2,206.8,31,207.4,32.3z M205.1,36.1c-0.5,0.5-0.9,1-1.3,1.6c-4.7,6.4-8.1,13.4-8.5,21.5 c-0.2,3.7-1.8,6.8-4.1,9.6c-1.5,1.9-2.7,4-3.9,6.1c-0.4,0.7-0.5,1.7-0.4,2.5c0.6,3.9,1.4,7.8,2.1,11.7c0,0,0.2,0,0.3-0.1 c0.3-0.3,0.7-0.6,0.9-0.9c4.2-5.4,7.6-11.2,9.5-17.8c1-3.5,1.4-7.2,2.3-10.7c1.2-4.6,2.8-9.1,4.2-13.7c1-3.4,1.1-6.8-0.5-10 C205.4,35.9,205.2,36,205.1,36.1z M126.3,19.2c1.6-0.1,2.7-0.2,3.8-0.3c2.3-0.2,4.5-0.5,6.8-0.4c11.1,0.2,19.7,7.9,20.9,19 c0.4,3.5,0.6,7.1,0.7,10.7c0.1,2.4,1.4,3.8,3.6,4.8c5.2-4,10.5-4,15.8-0.6c4.6,2.9,6.4,7.3,6.9,12.5c0.2,2.5,0.5,4.9,0.8,7.9 c1.3-1.8,2-3.3,3.1-4.5c3.1-3.3,4.5-7.2,4.8-11.6c0.6-9.4,5.4-16.7,11.3-23.7c-1.2-3.1-3.1-6.1-5.5-8.7c-3-3.3-5.8-6.7-8.6-10.1 c-1.2-1.5-2.2-3.1-3.6-4.5c-3.7-3.8-7.6-7-13.5-6.8c-5.2,0.2-10.4-0.1-15.6-0.4c-3.6-0.2-7.1,0.3-10.4,1.9 c-3.4,1.7-6.9,3.2-10.4,4.7C132.6,11.1,129.4,14.6,126.3,19.2z M102.5,26.5c4.9,3.5,9.5,6.9,14.3,10.3c2.5-2.4,5.6-4.3,9.5-4.3 c4.8,0,9.4,0.6,13.7,2.7c3.5,1.8,6.8,4.1,10.3,6.2c0-0.7,0.1-1.5,0-2.2c-0.1-0.7-0.3-1.3-0.5-2c-1.8-6.5-6.2-11.2-11.1-15.4 c-0.6-0.5-1.6-0.7-2.4-0.7c-2.3,0-4.5,0.2-6.8,0.4c-4,0.5-7.6,0-10.8-2.7c-0.7-0.6-1.6-1.1-2.4-1.6c-4.4-2.5-8.1-1.8-11.2,2.3 C103.3,21.7,102.4,24.2,102.5,26.5z M49.2,80.4c0.6-0.6,0.8-0.8,1-1.1c3-4.5,7.2-7.1,12.3-8.7c7.4-2.4,14.8-4.9,22.2-7.5 c4.7-1.7,9.4-3.1,14.5-2.4c3.4,0.5,6.8,1.2,10.3,1.8c1.3,0.2,2.6,0.2,3.9,0.3c-3.8-5.3-7.3-10.8-12.5-15c-1.4-1.1-2.8-2.4-4.1-3.6 c1,0.4,2,0.6,2.9,1.2c4.2,2.7,7.7,6.2,10.5,10.3c0.9,1.3,1.8,2.5,3,4.2c-0.2-3.5-0.5-6.3-0.6-9.2c-0.1-3.6-0.2-7.1,1.5-10.5 c0.2-0.5,0.2-1.5-0.2-1.8c-4.4-4.5-9.4-8.3-15.7-9.8c-4.2-1-6.6,0.1-9.1,3.8c-1.4,2.1-3,3.9-5.3,4.9c-4.1,1.7-5.9,4.9-6.5,9 c-0.3,2.1-0.7,4.1-1.1,6.2c-0.9,5.4-3.1,7.3-8.6,7.4c-1.7,0-3.5,0-5.2,0.4c-1.5,0.3-3.2,0.8-4.2,1.8c-2.9,3-6.2,5.5-10,7.3 c-1.4,0.7-2.5,2-1.8,3.9C47.1,75.6,48.1,77.8,49.2,80.4z M113.3,62.8l0,0.1L113.3,62.8C113.3,62.8,113.3,62.8,113.3,62.8z M42.1,94.8c-3.4,2.3-4.9,5.8-4.1,10c0.5,2.7,2,4.8,4,6.6c3.1,2.7,5.5,5.9,6.9,9.9c0.5,1.4,1.5,2.8,2.5,3.9c2.4,2.7,3.4,2.6,5.6-0.2 c0.4-0.6,0.8-1.2,1.2-1.7c2.9-3.4,6.6-5.6,11.2-5.1c6.1,0.7,12.2,1.7,17.6,5.2c1.7,1.1,3.6,2,5.6,3.2c-0.2-0.9-0.6-1.6-0.5-2.2 c0.3-1.5-0.4-2.2-1.5-2.9c-2.3-1.5-2.2-3-0.1-4.7c0.3-0.2,0.6-0.5,0.9-0.8c-2-3.5-1.9-4.1,1.5-6c-1.1-3.5-1-3.7,2.5-4.8 c0.5-1.7,0.6-3.6,1.4-4c1.1-0.6,2.7,0,4.3,0c-0.2-2.5,1.3-3.7,3.6-4c0.2-4.1,0.4-4.3,4.3-4.6c0.4,0,1-0.1,1.1-0.4 c1.1-2.1,3.1-2.2,5.1-2.2c2.2-4.6,3.2-4.8,6.4-1.2c1.4-0.5,2.8-1,4.2-1.6c0.7-1.9,1.5-4,2.2-6c0.2-0.5,0.3-1.2,0.2-1.8 c-0.6-6.7-3.7-10.7-10.4-12.4c-5.8-1.5-11.7-2.4-17.6-3.7c-3.7-0.8-7.3-0.5-10.8,0.7c-9,3.1-18.1,6.2-27.1,9.2 c-5.3,1.8-9.5,4.9-11.5,10.2C49.1,88.2,46.3,91.9,42.1,94.8z M30.4,130.9c0.3,0.4,1,0.7,1.5,0.9c3.6,0.9,7.3,1.8,10.9,2.4 c1.4,0.3,3.2,0.5,4.3-0.1c2.2-1.3,4-3.2,5.9-4.8c-5.1,1.3-10.2,1.9-15.3,0.4c-1.3-0.4-2.5-1.3-3.8-2.1c5.7,1.5,11.4,1.8,17.1,0.6 c-1.4-1.9-3.2-3.5-3.9-5.5c-1.7-4.3-4.4-7.6-7.8-10.6c-0.5-0.5-1-1-1.4-1.5c-4-4.9-3.7-11.9,0.8-16.4c1.1-1.1,2.4-2,3.6-3 c1.1-1,2.2-2,3.3-3.1c-0.1-0.2-0.2-0.3-0.3-0.5c-3.7,0.5-7.3,1.1-11,1.6c0-0.2-0.1-0.4-0.1-0.5c3.8-1.2,7.8-1.9,11.9-2.3 c-3-0.3-6-0.7-9-0.4c-2.5,0.2-5,0.9-7.3,1.8c-2.3,0.9-3.5,2.9-3.3,5.4c0.2,2,0.5,4,1.2,5.8c1.7,4.7,2.3,9.3,0.2,14 c-0.3,0.7-0.7,1.4-0.9,2.2C25.4,121.1,26.5,126.3,30.4,130.9z M17.5,151.8c2.9,4,5.4,8.3,6.9,13.1c0.3,0.8,0.9,1.7,1.6,2.3 c7.1,6,15.4,8.2,24.5,7.8c1.7-0.1,3.4-0.4,5.1-0.6c-0.5-2.5-0.9-4.6-1.3-6.9c-0.8,0.2-1.4,0.4-2,0.4c-2.7,0.4-5.5,1.1-8.2,0.9 c-3.6-0.2-7.2-0.9-9.7-3.9c6.3,3,12.8,3.2,19.8,1.6c-1.1-2.3-2-4.4-2.9-6.4c-1.3,0.1-2.4,0.2-3.5,0.2c-6.8,0.2-12.8-2-18-6.4 c0.4,0.1,0.9,0.2,1.3,0.4c2.9,1.2,5.7,2.7,8.6,3.7c3.6,1.3,7.4,1.7,11,0.6c0.4-2.6,0.8-5,1.2-7.3c-5.2-2.1-10-5.2-15.9-5 c0.9-0.4,1.8-0.8,2.7-0.7c2.4,0.4,4.8,0.8,7.1,1.6c1.9,0.7,3.7,1.8,5.5,2.9c1.2,0.8,1.7,0.3,2-1c-4.8-2.8-7.3-7.1-7.4-12.2 c-3.8-0.7-7.5-1.2-11-2.1c-6.3-1.7-11.5,0.5-15.9,4.7C15.2,142.9,14.7,147.9,17.5,151.8z M28.1,171.4l-0.1,0L28.1,171.4 C28.2,171.5,28.2,171.4,28.1,171.4z M20.4,192.6c0.9-2,2.1-3.8,2.7-5.8c1.2-3.8,3-7,6.5-9.1c0,0,0-0.3-0.1-0.7 c-1.6,0.9-3.1,1.8-4.7,2.5c-2.8,1.3-3.5,1.4-5.4,0.7c3.1-1,6.1-2,8.6-3.9c-1.3-1.7-2.6-3-3.4-4.6c-1.5-3.1-2.8-6.4-4.1-9.6 c-1.3-3.3-2.8-6.5-5.6-8.9c-0.4-1.5-1.4-1.3-2.4-0.9c-1.6,0.7-3.2,1.5-5,2.3c1.5-2.6,3.9-3,6.3-3.7c-1.5-3.8-0.6-7.4,1.1-11.4 c-4,1.6-7,3.6-9.4,6.6c-2.4,3-3.4,6.4-2.6,10.2c0.7,3.4,1.8,6.5,3.8,9.3c2.6,3.6,4,7.4,3.7,11.9c-0.1,1.4-0.1,2.8,0.1,4.2 C11.4,187.3,15.3,190.1,20.4,192.6z M62.1,227.6c5.3-3.8,11.1-5.5,17.6-5.4c4.2,0,8.3-1.2,11.6-3.9c3.5-2.9,6.9-6.1,10.3-9.1 c0.5-0.4,0.8-1,1.2-1.6c-1.1-0.9-2-1.7-3-2.6c-0.3,0.2-0.6,0.3-0.9,0.5c-7.4,5.7-15.8,9.7-24.5,13.2c-11,4.5-21.5,4.8-32.1-1.1 c-4.9-2.8-10-5.2-15.1-7.7c-2.8-1.4-3.2-3-0.9-4.9c2.9-2.4,5.9-4.6,9.2-6.3c4.5-2.4,9.5-4,13.9-6.6c5.7-3.4,11.4-6.6,17.6-9 c0.3-0.1,0.6-0.4,0.9-0.6c0-0.2-0.1-0.3-0.1-0.5c-1.2,0-2.5,0-3.7,0c-4.1,1.9-8.2,4.1-12.4,5.8c-6.4,2.5-13,4.7-19.7,6.7 c1-0.5,1.9-1.2,2.9-1.6c9.4-3.7,18.7-7.3,28.1-10.9c0.3-0.1,0.7-0.1,1-0.2c-0.1-2.1-1.6-1.5-2.8-1.3c-10,2.2-19.8,2.3-29.4-2 c-2.3,1.8-4.5,3.6-5.3,6.4c-1.4,5.2-3.9,9.6-8.5,12.6c-0.2,0.1-0.4,0.4-0.6,0.6c-3.1,3-3.7,6.2-2,10.2c1.8,4,4.8,7,8.5,9.3 c7.1,4.4,14.2,8.7,21.4,12.9c0.9,0.5,1.9,0.7,3,0.8C53.5,232.3,58,230.5,62.1,227.6z M106.1,216.6c2.6-2.6,5.4-4.8,6-8.7 c-3.9-0.4-6.9,0.8-9.3,3.7c-1.6,2-3.7,3.7-5.6,5.4c-5.6,5.2-12.1,7.9-19.8,7.9c-2.4,0-5,0.2-7.1,1.2c-4.6,2.1-9,4.8-13.9,7.5 c7.6,0.1,14.9,0.7,22-1.7c-0.5-0.5-0.8-0.9-1.2-1.2c1.1,0,2.2-0.1,3.3-0.1c2.2,0.2,4.2-0.5,6-2.1c-1.3,0-2.6,0-3.9,0 c3.9-0.8,7.9-0.5,11.2-3.6c-1.7,0-3.1,0-4.6,0c0-0.2,0-0.3-0.1-0.5c4.4-0.4,8.9-0.5,12-4.3c0,0,0,0,0,0c-1.6-0.4-3.4,1.1-5.4-0.4 C99.7,219.3,103.2,219.4,106.1,216.6z M182.7,214.9c0,0,0.1-0.1,0.1-0.1C182.7,214.8,182.7,214.8,182.7,214.9c-0.1,0-0.1,0-0.2,0 C182.6,214.9,182.6,214.9,182.7,214.9z M190,203.4c-2.6,1.5-5.3,2.7-7.7,4.4c-6.9,4.9-14.7,7.3-22.9,8.7c-3.7,0.7-7.4,1.8-11,3 c-2.6,0.8-4.9,2.2-7.5,3c-6.2,2-12.5,1.6-18.9,1c-4.9-0.5-9.6-1.8-13.5-5c-0.1-0.1-0.3-0.1-0.6-0.1c-0.5,0.4-1,0.9-1.8,1.6 c2.8,1.3,5.4,2.6,8,3.7c6.8,3,14.1,3.4,21.4,4c4.9,0.4,9.6-0.3,14-2.4c6-2.9,12.3-4.1,18.9-4.4c4.5-0.2,8.7-1.4,12.2-4.5 c0,0,0.1,0,0.1,0c-0.1,0-0.1,0-0.2,0c-1.6,0.6-3.3,1.1-5.2,1.7c3.4-2.4,6.4-4.5,9.2-6.5c-0.1,0.3-0.2,0.9-0.3,1.5 C188.2,211,190.6,207.1,190,203.4z M189.9,196.6c-0.2-0.7-0.4-1.4-0.8-1.9c-0.6-0.6-1.3-1.5-2.1-1.5c-4.1-0.2-8.1-0.2-12.2-0.2 c-2.3,0-4.5,0.4-6.8,0.4c-7.8,0-12.7-3.2-13.7-11.5c-0.4-3.5-2.2-6.8-3.4-10.2c-0.2,0-0.3,0.1-0.5,0.1c-0.2,4.6-0.3,9.3,1,13.8 c0.5,1.8,1,3.7,1.3,5.6c0.6,3.6,0.1,7.1-1.4,10.4c0.1-2.1,0.5-4.1,0.4-6.2c-0.1-2.7-0.7-5.3-1-8c-0.5-4.6-1-9.2-1.5-13.8 c-0.5,0.7-1,1.4-1.3,2.1c-5.3,11.8-14.6,19.9-24.8,27.2c-1.9,1.4-4.3,2.1-6.4,3.3c-0.7,0.4-1.5,1.2-1.7,2c-0.7,2.8-2.1,5.1-4,7.2 c-0.4,0.5-0.8,1-1.2,1.5c7.2,4.3,14.9,4.5,22.7,4.2c3.7-0.1,7.3-0.7,10.6-2.4c5.9-3.1,12.2-4.6,18.6-5.6c4.5-0.7,8.9-1.9,12.9-4.1 c4.5-2.5,8.8-5.2,13.3-7.6C190.8,200.1,191,199.7,189.9,196.6z M212,166.4c-1.2-8.6-1.8-17.1-1.8-25.7c0-2.3-0.2-4.5-0.4-6.8 c-0.1-1.2-0.3-2.4-0.8-3.5c-3.6-8.9-10.5-13.7-19.6-15.7c-1.3,1.6-1.4,2.8,0.1,4.1c2.9,2.6,5.7,5.4,8.7,7.8c4.2,3.5,6.2,7.8,6,13.2 c-0.1,4.5,0.1,9-0.1,13.6c-0.1,2.2-0.4,4.5-1.2,6.6c-1.3,3.6-2.2,7.3-2.2,11.2c0,2.1-0.8,4.5-1.9,6.4c-1.4,2.3-3.3,4.2-5.2,6.1 c-1.9,2-3.7,4.1-4.6,6.8c5.8,1.3,9.4,0.6,13.4-2.3C209.9,182.8,213.2,175.4,212,166.4z M322.3,349.6c-1.4-3.5-3.3-6.6-6.1-9.2 c-2.5-2.3-4.7-4.9-7-7.4c-0.8-0.9-1.5-2-2.2-3.1c0.7,0.7,1.4,1.4,2.2,2.1c2.7,2.6,5.4,5.1,8.2,7.7c-0.1-0.4-0.1-0.8-0.3-1.1 c-3.4-6.9-6.7-13.9-10.2-20.8c-5.6-11-11.9-21.7-19.3-31.6c-2-2.7-4.2-5.3-6.3-7.9c0.1-0.1,0.2-0.2,0.2-0.2c2.2,2.2,4.5,4.5,6.7,6.7 c-3.8-7.4-7.5-14.9-12.2-21.8c-8-11.8-16.6-23.3-25.2-34.8c-10.9-14.5-22.4-28.6-34.5-42.2c-1.3-1.5-2.8-2.7-4.3-4.2 c-2.3,2.7-4.4,5.1-6.6,7.7c3.5,3.2,7.1,6.3,10.5,9.5c8.8,8.2,16.4,17.5,23.7,27c6.4,8.3,12.7,16.7,18.8,25.3c3,4.2,5.5,8.7,8.2,13.1 c-0.3-1.3-0.4-2.7-0.9-3.8c-1.9-3.8-4-7.5-6-11.2c-1.1-2-2.2-3.9-3.3-5.9c0.2-0.1,0.3-0.2,0.5-0.3c4.2,6.3,8.9,12.4,10.7,20 c0.1,0.5,0.4,1,0.7,1.5c0,0,0-0.1,0-0.1c0,0.1,0,0.1,0,0.2l0-0.1c0.2,1.3,0.2,2.8,0.8,3.9c7.1,12.6,14.4,25.2,21.6,37.7 c0.9,1.5,2,2.9,3.1,4.4c-0.6-1.4-1.2-2.7-1.8-4.1c0.1,0,0.2-0.1,0.3-0.1c10.1,19.7,20.1,39.3,30.2,59c0.1-0.1,0.3-0.1,0.4-0.2 c0-0.5,0.1-0.9,0.1-1.4c0.6,1,1.2,2,1.6,3.1c1.9,5,3.6,10.2,5.7,15.1c4.9,11.1,10.1,22.1,15.1,33.2c0.5,1.2,1.2,1.8,2.9,1.7 c-0.2-1.3-0.3-2.5-0.7-3.5c-1.2-3.3-2.5-6.5-3.7-9.7c-4.8-12.2-9.4-24.5-14.3-36.6C327.5,361.2,324.7,355.5,322.3,349.6z M404.5,299.7c-2.9-0.4-5.6-0.7-8.3-0.4c-10.8,1.1-20.9,4.6-30.6,9.1c-3.9,1.8-7.5,4.3-11.4,6.2c-6,3.1-11.2,7.3-15.5,12.4 c-0.9,1.1-1.5,2.3-2.3,3.7c7.2-1.1,11.2-6.2,15.3-11.1c0.2,0.2,0.4,0.4,0.5,0.5c-1.3,1.9-2.6,3.9-3.9,5.8c1.9-0.7,3.6-1.5,5.2-2.5 c4.9-2.8,9.7-5.6,12.3-11.1c1.2-2.4,3.4-4.2,6.1-5.3c-1.7,2.3-3.5,4.6-5.2,6.8c0.5-0.3,1-0.5,1.4-0.8c4.1-2.7,8.4-5,13.1-6.2 c3.4-0.8,6.8-1.2,10.2-1.7c0,0.2,0.1,0.5,0.1,0.7c-2.9,0.8-5.7,1.7-8.8,2.6c1.8,0.5,3.3,0.9,4.8,1.2c0,0.3,0,0.6,0.1,0.9 c-10.5-1.8-18.4,2.8-25.5,10.1c4.9-0.6,9.6-1.2,14.4-0.7c-0.7,0.5-1.4,0.7-2.2,0.8c-3,0.4-6.1,0.6-9,1.2c-3.1,0.6-6.3,1.1-9.3,2.3 c-4.2,1.7-8.1,4-12.2,5.8c-2.8,1.2-5.7,2-8.9,3.1c1.6,0.6,2.8,1.1,4,1.5c5.5,1.7,11,2.5,16.7,1.3c10-2.1,18.4-7,25.5-14.3 c5.5-5.6,10.9-11.2,16.5-16.7C399.8,303.2,402.2,301.5,404.5,299.7z M233.3,361.7c0-0.1-0.1-0.1-0.1-0.2 C233.2,361.6,233.2,361.7,233.3,361.7L233.3,361.7z M34.3,164.8c0,0,0.1,0,0.1,0.1C34.4,164.8,34.4,164.8,34.3,164.8L34.3,164.8z M101.2,111C101.2,111,101.2,111,101.2,111C101.2,111,101.2,111,101.2,111L101.2,111z M67.2,214.4c0,0,0.1,0,0.1,0 C67.3,214.4,67.3,214.4,67.2,214.4L67.2,214.4z M84.7,118c-7.5-2.7-14.9-5.9-21.5-10.5C69,113.7,76.5,116.7,84.7,118z M103.8,93.3 c-4-5-7.6-9.7-11.4-14.5C94.3,85.1,98.2,89.6,103.8,93.3z M83.7,91.2c3,1.9,5.9,3.9,8.9,5.9c0.5,0.3,1,0.7,1.5,1.1 c-3.5-5.5-9.6-7.7-14.6-11.2C80.2,89.1,82,90.1,83.7,91.2z M117.4,72.3C117.4,72.3,117.4,72.3,117.4,72.3 C117.4,72.3,117.4,72.3,117.4,72.3C117.4,72.3,117.4,72.3,117.4,72.3z M122.2,85c0,0.3,0.3,0.6,0.4,0.8c0.1-5.2-1-10-5.2-13.5 c0.1,0.4,0.1,0.8,0.3,1.1C120,77,121.5,80.8,122.2,85z M54.9,121.4c-1.8-2.6-3.7-5.1-5.5-7.7C50.1,117.1,51.4,120,54.9,121.4z M82.2,72.2c-0.1-0.2-0.2-0.3-0.2-0.5c-3.1,0.2-6,1.2-8.7,2.6c0.1,0.3,0.2,0.5,0.2,0.8C76.4,74.2,79.3,73.2,82.2,72.2z M41.9,106.4 c0.2-2.6,0.5-5.5,0.7-8.3C40.5,100.9,40.2,104.2,41.9,106.4z M113,86.3c0.1-0.1,0.3-0.3,0.4-0.4c-1.1-1.4-2.3-2.8-3.4-4.3 C110.1,83.9,111.1,85.4,113,86.3z M74.3,102.4c2.2,0.9,4.3,1.8,6.5,2.7c-1.8-1.6-3.9-2.7-6.2-3.3C74.5,102,74.4,102.2,74.3,102.4z M80.8,105.2L80.8,105.2L80.8,105.2C80.8,105.1,80.8,105.1,80.8,105.2C80.8,105.1,80.8,105.1,80.8,105.2z M43.9,104.3 c0.1,0,0.3,0.1,0.4,0.1c0.1-0.5,0.2-1,0.3-1.6c-0.1,0-0.2-0.1-0.4-0.1C44.2,103.3,44,103.8,43.9,104.3z M68.2,108.3 c-0.3-0.1-0.6-0.3-0.8-0.4c0.2,0.2,0.4,0.5,0.6,0.7C68.1,108.5,68.1,108.4,68.2,108.3z M67.4,107.9c0,0-0.1-0.1-0.1-0.1l-0.1-0.1 l0.1,0.1C67.3,107.9,67.3,107.9,67.4,107.9z M83,87L83,87l-0.1-0.1l-0.1-0.1l0.1,0.1L83,87z M121.1,73.9l0-0.1l0,0l-0.1,0l0.1,0 L121.1,73.9z M117.4,72.3c-0.2-0.2-0.3-0.4-0.5-0.5l0,0C117,71.9,117.2,72.1,117.4,72.3C117.4,72.3,117.4,72.3,117.4,72.3z M206.1,388.8c5.2-5.8,3.6-12.8,3.5-19.6C208,375.6,209.6,382.7,206.1,388.8z M207.7,327.7c-0.5,1.7-1,3.5-1.5,5.2 c0.2,0,0.3,0.1,0.5,0.1c0.5-1.7,1.1-3.5,1.6-5.2C208.1,327.8,207.9,327.7,207.7,327.7z M214.3,315.1c0,0-0.1,0-0.1,0 c0,0.7,0,1.3,0,2c0,0,0.1,0,0.1,0C214.3,316.4,214.3,315.8,214.3,315.1z M239.8,345.3C239.8,345.3,239.8,345.3,239.8,345.3 C239.9,345.6,239.9,345.4,239.8,345.3z M239.8,345.3C239.8,345.3,239.8,345.3,239.8,345.3C239.8,345.3,239.9,345.3,239.8,345.3 C239.9,345.3,239.8,345.3,239.8,345.3z M239.9,345.4C239.9,345.5,239.9,345.5,239.9,345.4L239.9,345.4z M239.1,353.8 C239.1,353.8,239.1,353.8,239.1,353.8c0.2-0.3,0.3-0.7,0.5-1c0-0.1,0-0.1,0-0.2c0,0-0.1,0.1-0.1,0.1 C239.4,353.1,239.3,353.4,239.1,353.8z M239,353.9L239,353.9l0.1-0.1L239,353.9z M154.2,93.6c-2.6-7.9-9.6-13-15.7-12.9 C145.4,82.9,150.2,87.8,154.2,93.6z M155.3,112.3c1.8,3.1,3.4,6,5.3,9.3C160.3,117.9,158.1,114,155.3,112.3z M142.4,130.3 L142.4,130.3L142.4,130.3c0,0.1,0,0.1,0.1,0.1C142.5,130.4,142.5,130.3,142.4,130.3z M146.2,133.4c0.1-0.2,0.3-0.4,0.4-0.6 c-1.4-0.8-2.7-1.6-4.1-2.4C143.4,131.9,144.8,132.7,146.2,133.4z M115.8,138.5c1.1,0.5,2.3,1.1,3.4,1.6c0.1-0.2,0.2-0.4,0.2-0.5 c-1.2-0.5-2.3-1-3.5-1.6C115.9,138.2,115.9,138.4,115.8,138.5z M147.6,109.4c0.5,0.7,1.1,1.4,1.6,2l0,0 C148.8,110.7,148.2,110,147.6,109.4C147.7,109.4,147.6,109.4,147.6,109.4z M146.7,107.8c0.3,0.5,0.7,1.1,1,1.6c0,0,0,0,0,0 C147.4,108.8,147,108.3,146.7,107.8L146.7,107.8z M141.3,107.1c0,0,0,0.1,0.1,0.3c0,0,0,0,0.1,0c0,0,0,0,0-0.1 C141.3,107.2,141.3,107.1,141.3,107.1z M128.8,128.8c0.4,0.2,0.7,0.3,1.1,0.5c0,0,0.1,0,0.1,0c0,0-0.1-0.1-0.1-0.1 C129.6,129,129.2,128.9,128.8,128.8c-0.3-0.2-0.6-0.4-1-0.6c-0.2-0.1-0.3-0.1-0.5-0.2c0.1,0.1,0.3,0.2,0.4,0.2 C128.1,128.4,128.4,128.6,128.8,128.8z M130.5,129.4c-0.2,0-0.3-0.1-0.5-0.1c0.1,0.1,0.2,0.2,0.4,0.3 C130.4,129.5,130.5,129.4,130.5,129.4z M125.2,133.9l0.1,0.1L125.2,133.9c-0.3-0.2-0.7-0.3-1-0.5c-0.1-0.1-0.3-0.1-0.4-0.2 c0.1,0.1,0.2,0.2,0.4,0.3C124.4,133.6,124.8,133.8,125.2,133.9z M147.7,123.5L147.7,123.5L147.7,123.5L147.7,123.5c0,0,0-0.1,0-0.1 C147.7,123.4,147.7,123.4,147.7,123.5z M137.3,14.4c5.5-1.2,10.8-2.4,16.1-3.6C147.7,10.4,142.1,10.3,137.3,14.4z M184.9,35.1 c0.8-1.8,2.1-3.4,3.2-5c-0.1-0.1-0.2-0.2-0.3-0.3c-5,4.5-7.8,11.3-6.3,14.4C182.6,41.3,183.6,38.2,184.9,35.1z M159.8,31.9 c0.8,3.8,1.5,7.6,2.3,11.7C162.8,39.1,162.2,35.3,159.8,31.9z M181,10.4c-1.4-1.6-1.7-1.7-3.7-1.6c1.3,0.8,2.3,1.4,3.3,2 C180.7,10.6,180.8,10.5,181,10.4z M163.7,32.1c0-0.7,0-1.4,0-2c-0.1,0-0.3,0-0.4,0c0,0.7,0.1,1.4,0.1,2.1 C163.5,32.1,163.6,32.1,163.7,32.1z M184.9,40.3c0.1,0.1,0.2,0.1,0.3,0.2c0.2-0.3,0.4-0.6,0.7-0.9c-0.1-0.1-0.3-0.2-0.4-0.3 C185.2,39.6,185.1,40,184.9,40.3z M143.8,14.5c0,0,0.1,0,0.2-0.1l0,0l0-0.1l-0.1,0.1C143.9,14.4,143.8,14.5,143.8,14.5z M188.9,28.9 C189,28.9,189,28.9,188.9,28.9L188.9,28.9L188.9,28.9c0,0-0.1,0.1-0.1,0.1C188.9,29,188.9,29,188.9,28.9 C189,28.9,189,28.9,188.9,28.9z M188.3,29.3c0.1,0.1,0.1,0.1,0.2,0.2c0.1-0.2,0.2-0.3,0.3-0.5C188.7,29.1,188.5,29.2,188.3,29.3z M188.5,29.5c-0.1-0.1-0.1-0.1-0.2-0.2c-0.2,0.2-0.4,0.3-0.6,0.5c0.1,0.1,0.2,0.2,0.3,0.3C188.2,29.9,188.4,29.7,188.5,29.5z M181.3,149.4c2.5,2,4.7,4.3,5.7,7.3c1,3.1,1.7,6.3,2.5,9.5c0.2,0.8,0.3,1.7,0.5,2.6c0.5-4.3-0.3-8.3-2-12.2 c-1.2-2.9-2.9-5.3-5.3-7.3c-3.2-2.7-6.5-5.3-9.8-8c0.4,0.7,0.7,1.5,1.2,2C176.4,145.4,178.8,147.4,181.3,149.4z M177.8,135.1 c3.1,2.2,5.9,4.3,9.2,6.7C184.6,138.3,182,135.8,177.8,135.1z M175.8,168.8c0,0,0,0.1,0.1,0.1c0.1,0.1,0.3,0.1,0.4,0.2 c-0.1-0.1-0.2-0.2-0.4-0.2C175.9,168.9,175.8,168.8,175.8,168.8z M175.8,168.8c-1.5-2.5-2.9-5.1-4.4-7.6 C171.8,164.4,172.9,167.1,175.8,168.8z M179.5,161.5c0.4,1,0.7,2.1,1.1,3.1c0.2-0.1,0.4-0.1,0.6-0.2c-0.3-1-0.6-2.1-1-3.1 C180,161.3,179.7,161.4,179.5,161.5z M172.8,141.2c0,0,0.1,0.1,0.1,0.1C172.9,141.3,172.9,141.2,172.8,141.2 c-0.2-0.2-0.4-0.4-0.6-0.5c0,0,0,0,0,0c0,0,0,0,0,0C172.4,140.9,172.6,141.1,172.8,141.2z M215.3,195.1c0.4,0.5,0.7,1,1.2,1.4 c5.8,4.5,11,9.7,15.5,15.5c1.4,1.9,3.2,3.5,4.9,5.2c-3.2-4.2-6.3-8.6-9.8-12.7C223.7,200.8,219.8,197.4,215.3,195.1z M236.8,217.2 c0.1,0.1,0.1,0.2,0.2,0.2l0.1,0.1l0-0.1C237,217.4,236.9,217.3,236.8,217.2z M316.5,345.4l-0.2,0L316.5,345.4 c0.5,0.9,0.9,1.8,1.4,2.7l0.2,0.1l-0.1-0.1C317.5,347.2,317,346.3,316.5,345.4z M333.6,383.2c-0.2-0.4-0.4-0.9-0.6-1.3 c-0.1,0-0.2,0.1-0.3,0.1c0.2,0.4,0.4,0.9,0.6,1.3C333.4,383.2,333.5,383.2,333.6,383.2z M288.3,292.7c-0.1,0-0.1,0-0.2,0 C288.1,292.7,288.2,292.7,288.3,292.7c0.3,0.6,0.6,1.1,0.9,1.7c0,0,0.1,0,0.1,0.1c0,0-0.1-0.1-0.1-0.1 C288.9,293.7,288.6,293.2,288.3,292.7z M268.5,263.2c0,0.4,0,0.8,0,1.2c0.1-0.4,0.2-0.8,0.3-1.2 C268.6,263.2,268.5,263.2,268.5,263.2z M301.4,321.7c0,0.1,0.1,0.1,0.1,0.2c0.1-0.1,0.1-0.2,0.2-0.3c0-0.1-0.1-0.1-0.1-0.2 C301.5,321.5,301.4,321.6,301.4,321.7z M322.8,363.3c0.1,0.1,0.3,0.2,0.4,0.4c0-0.2-0.1-0.4-0.1-0.6 C322.9,363.2,322.8,363.3,322.8,363.3z M323.1,363.7c0,0,0,0.1,0,0.1c0,0,0,0,0,0.1C323.2,363.8,323.2,363.8,323.1,363.7 C323.2,363.7,323.2,363.7,323.1,363.7z M214.9,194.9c0,0,0.1,0,0.3,0.1c0,0,0.1,0.1,0.1,0.1c0,0-0.1-0.1-0.1-0.1 C215,194.9,214.9,194.9,214.9,194.9z M279.4,275.9c-0.2-0.2-0.4-0.3-0.6-0.5l-0.1-0.1l0.1,0.1C278.9,275.6,279.1,275.8,279.4,275.9 c0.1,0.2,0.3,0.4,0.4,0.6l0,0C279.7,276.3,279.5,276.1,279.4,275.9z M280.4,277c-0.2-0.2-0.4-0.3-0.5-0.5c0,0,0,0,0,0 C280,276.7,280.2,276.9,280.4,277C280.4,277.1,280.4,277.1,280.4,277C280.4,277.1,280.4,277.1,280.4,277L280.4,277z M281.5,278 c-0.2-0.2-0.4-0.3-0.5-0.5c-0.2-0.1-0.4-0.2-0.6-0.4c0.1,0.2,0.2,0.4,0.3,0.6c0,0,0,0,0,0c0.2,0.2,0.4,0.3,0.6,0.5 C281.4,278.1,281.4,278.1,281.5,278z M289.3,294.5c0,0,0.1,0,0.1,0C289.4,294.4,289.4,294.4,289.3,294.5 C289.3,294.4,289.3,294.4,289.3,294.5z M306.9,329.7L306.9,329.7c0.1,0.1,0.1,0.1,0.2,0.1c0,0,0,0,0-0.1L306.9,329.7z M142.8,155.8 c-1.6,0.2-3.2,0.4-4.8,0.6c0,0.2,0,0.4,0,0.6c1.6-0.1,3.3-0.3,4.9-0.4C142.9,156.4,142.8,156.1,142.8,155.8z M130.9,152.3 C130.9,152.3,130.9,152.3,130.9,152.3C130.8,152.3,130.7,152.3,130.9,152.3z M130.9,152.3c0.1,0,0.1,0,0.2,0c0,0,0,0,0.1,0 c0,0-0.1,0-0.1,0C131,152.3,130.9,152.3,130.9,152.3z M130.9,152.3C130.9,152.3,130.9,152.3,130.9,152.3 C130.7,152.4,130.8,152.3,130.9,152.3z M126.2,161L126.2,161c0.1,0.1,0.1,0.1,0.1,0.1c0,0,0,0,0,0L126.2,161z M141,202.1 c0.9-3.4,1.7-6.9,2.7-10.6C140.4,195.1,139.3,200.2,141,202.1z M129.3,201.6c0.6,2,1.3,4,1.9,6.1c0.2-0.1,0.4-0.1,0.6-0.2 c-0.6-2-1.3-4.1-1.9-6.1C129.8,201.5,129.5,201.5,129.3,201.6z M143.2,197.7c0.3,0.7,0.5,1.4,0.8,2c0.1,0,0.2-0.1,0.3-0.1 c-0.2-0.7-0.4-1.3-0.6-2C143.7,197.6,143.4,197.7,143.2,197.7z M165.8,195.8c0.2,0.7,0.4,1.5,0.6,2.2c0-0.8,0-1.5,0-2.3 C166.2,195.7,166,195.7,165.8,195.8z M166.4,198c0,0.1,0,0.1,0,0.2l0.1,0l-0.1-0.1C166.5,198.1,166.5,198,166.4,198z M155.2,194.6 c0.1,0,0.1-0.1,0.2-0.1c-0.1-0.3-0.2-0.5-0.4-0.8C155.1,194,155.1,194.3,155.2,194.6z M154.9,193.6c0,0.1,0,0.1,0.1,0.2 C155,193.7,155,193.6,154.9,193.6L154.9,193.6z M155,193.5C155,193.5,154.9,193.6,155,193.5C154.9,193.6,155,193.5,155,193.5z M303.2,243.3c1-7.2,2-14.6,3.1-22.1C303.5,226.5,301.8,239,303.2,243.3z M327.5,254.5c-0.8-3.2-2.4-6-5.1-8.2 c1.6,2.8,3.1,5.6,4.7,8.5C327.2,254.7,327.3,254.6,327.5,254.5z M306,275.5c0.2,0,0.4-0.1,0.6-0.1c-0.4-3.1-0.8-6.2-1.2-9.2 C304.6,269.4,304.3,272.6,306,275.5z M324.9,254.2c0.1,0.1,0.2,0.2,0.3,0.3c-0.1-0.2-0.1-0.3-0.2-0.5 C325,254.1,324.9,254.1,324.9,254.2z M325.3,254.5C325.3,254.5,325.3,254.5,325.3,254.5C325.2,254.5,325.3,254.5,325.3,254.5 c0.1,0.4,0.3,0.7,0.5,1.1c0.1,0,0.1,0,0.2,0.1c0,0-0.1-0.1-0.1-0.1C325.7,255.3,325.5,254.9,325.3,254.5z M92,166.7 c0-0.1,0-0.1,0-0.2c-1.2,0-2.4,0-3.6,0c0,0.1,0,0.1,0,0.2C89.6,166.7,90.8,166.7,92,166.7z M96.2,156.1c-0.1,0-0.2,0-0.3-0.1 c0,0,0.1,0.1,0.2,0.1C96.1,156.2,96.1,156.2,96.2,156.1z M88.7,156.3c-0.1,0-0.1,0-0.2,0C88.6,156.3,88.6,156.4,88.7,156.3 c0.3,0.2,0.6,0.4,1,0.6c0.1,0,0.1,0,0.2,0c0,0-0.1,0-0.1-0.1C89.4,156.7,89.1,156.5,88.7,156.3z M119.8,56.4 c0.2-6.4,1.9-12.1,7.3-16.2C121.5,41.8,116.9,49.2,119.8,56.4z M154.3,64.3c3.9,7,3.6,14.3,4.3,21.5 C160.2,77.5,159.1,67.9,154.3,64.3z M154.9,71.1c-0.5-0.8-1.1-1.6-1.6-2.4c-0.2,0.1-0.3,0.2-0.5,0.3c0.5,0.8,1,1.7,1.5,2.5 C154.5,71.4,154.7,71.3,154.9,71.1z M122.2,52.6c0.2,0.1,0.4,0.1,0.6,0.2c0.2-0.6,0.4-1.3,0.7-1.9c-0.2-0.1-0.4-0.1-0.7-0.2 C122.6,51.3,122.4,51.9,122.2,52.6z M35.9,188.8l0.1-0.2L35.9,188.8c-0.2,0.1-0.4,0.3-0.6,0.5c0,0,0,0,0,0.1 C35.6,189.2,35.8,189,35.9,188.8z M63.2,64.3c0.5-0.4,1.1-0.7,1.7-1.1c-0.1-0.2-0.1-0.4-0.2-0.6c-1.5,0.5-3.2,0.8-4.4,1.6 c-3.3,2.3-6.4,4.8-9.5,7.3c2.5-0.2,4.5-1.3,6.7-3.2C59.3,66.8,61.3,65.6,63.2,64.3z M83.5,41.1c-3.1,2.2-4.5,5.3-3.8,8.2 C81,46.5,82.2,44,83.5,41.1z M94.9,32.9c2.5,0.7,4.9,1.4,7.8,2.3C100.1,32.7,97,31.9,94.9,32.9z M95.3,55.3 c-0.9-0.8-1.8-1.5-2.6-2.3c-0.1,0.2-0.3,0.3-0.4,0.5c0.8,0.8,1.7,1.5,2.5,2.3C95,55.6,95.1,55.5,95.3,55.3z M104.4,45.7L104.4,45.7 l-0.1-0.1l-0.1,0L104.4,45.7L104.4,45.7z M172.5,259.5c-0.1,0.2-0.2,0.3-0.3,0.5c4,2.5,8.1,5.1,12.9,5.7c0.7,0.1,1.4-0.1,2.1-0.2 c-3.5-1.3-6.9-2.4-10.3-3.8C175.5,261.2,174,260.3,172.5,259.5z M123.8,251c0.4,0.4,0.9,0.9,1.3,1.3c2.5,2.1,5,4.3,7.5,6.4 c0.8,0.7,1.6,1.4,2.4,2C132.4,256.2,128.7,252.9,123.8,251z M172.4,278.1c0.5,0.2,1,0.6,1.5,0.6c3.4,0.2,6.9,0.3,10.3,0.4 c0.3-0.3,0.7-0.5,1.4-1.1C180.9,278.1,176.6,278.1,172.4,278.1z M156,276L156,276c0,0-0.1-0.1-0.1-0.1C155.9,276,156,276,156,276z M142.4,250.3c0,0.2,0,0.5,0,0.7c2.1,0,4.2,0,6.4,0C146.6,250.7,144.5,250.5,142.4,250.3z M153.4,251.4L153.4,251.4L153.4,251.4 L153.4,251.4c-1.4-0.2-2.8-0.3-4.3-0.5c-0.2,0-0.3,0-0.5,0c0.1,0,0.3,0,0.4,0C150.6,251.2,152,251.3,153.4,251.4z M172.1,278 c0,0,0.1,0,0.1,0c0,0,0.1,0,0.1,0c0,0-0.1,0-0.1,0C172.3,278,172.2,278,172.1,278z M171,278c0.4,0,0.8,0,1.2,0 c-0.4-0.1-0.8-0.2-1.1-0.3C171,277.8,171,277.9,171,278z M148.3,271.8c-0.1,0.1-0.2,0.2-0.3,0.3c0.2,0.1,0.4,0.2,0.6,0.3 c2,2.1,4.3,3.4,7.2,3.5c-2.4-1.2-4.7-2.5-7.1-3.7C148.7,272.1,148.5,272,148.3,271.8z M123.3,250.8c0.1,0.1,0.2,0.1,0.4,0.2 c0,0,0.1,0,0.1,0.1c0,0-0.1-0.1-0.1-0.1C123.6,250.9,123.4,250.8,123.3,250.8z M135.1,260.8c0,0-0.1-0.1-0.1-0.1 C135,260.8,135.1,260.8,135.1,260.8c0.1,0.2,0.3,0.4,0.5,0.6l0.1,0l0-0.1C135.5,261.2,135.3,261,135.1,260.8z M49.4,156.5 c-1.6-0.4-3.2-0.7-4.8-1.1c0,0.2-0.1,0.4-0.1,0.6c1.6,0.4,3.2,0.7,4.8,1.1C49.3,156.9,49.4,156.7,49.4,156.5z M29.6,153.7l0,0.1 c0,0,0.1,0,0.1,0C29.7,153.9,29.6,153.8,29.6,153.7L29.6,153.7z M353.5,252.5c-3.8,4.3-6.5,9.2-7.6,14.9c0.9-1.4,1.5-2.9,2.2-4.3 C349.9,259.6,351.7,256.1,353.5,252.5z M349.2,263c-0.1,0.8-0.2,1.6-0.3,2.3c0.3-0.7,0.5-1.5,0.8-2.2 C349.6,263.1,349.4,263.1,349.2,263z M380.9,228.9l-0.1,0.2l0.2,0L380.9,228.9z M376.5,232.6l-0.1,0.1c0,0.1,0,0.1-0.1,0.2 c0,0,0.1-0.1,0.1-0.1L376.5,232.6z M377.1,239.9L377.1,239.9c-0.1,0.1-0.1,0.2-0.1,0.2c0,0,0.1,0,0.1-0.1L377.1,239.9z M362.4,240.5 c-0.2,0.1-0.4,0.3-0.6,0.4l0,0.1l0,0.1l0-0.1C362,240.8,362.2,240.6,362.4,240.5c0.2-0.1,0.4-0.3,0.5-0.5c0,0,0,0,0,0c0,0,0,0,0,0 c0.1-0.1,0.2-0.3,0.3-0.4c-0.1,0.1-0.2,0.2-0.4,0.3C362.7,240.1,362.5,240.3,362.4,240.5z M364.5,241L364.5,241L364.5,241L364.5,241 L364.5,241L364.5,241z M353.6,252.4L353.6,252.4c-0.1,0.1-0.1,0.1-0.1,0.1c0,0,0,0,0,0L353.6,252.4z M348.8,265.6l0.1,0 c0-0.1,0-0.1,0-0.2C348.9,265.5,348.9,265.5,348.8,265.6L348.8,265.6z M240.3,51.9c-0.6,1.4-1.1,2.9-1.2,4.3 c-0.2,5.8-2.7,10.1-7.4,13.3c-2,1.4-3.7,3.1-4.4,5.9c2.3-2,4.3-4.1,6.6-5.7C240.1,65.2,240.8,58.8,240.3,51.9z M208.1,89.2 c1-1.4,1.9-2.8,2.9-4.3C209.1,85.7,208,87,208.1,89.2z M236.5,47.3c-0.1-0.2-0.1-0.5-0.2-0.7c-1,0.2-1.9,0.5-2.9,0.7 c0.1,0.2,0.1,0.4,0.2,0.7C234.6,47.8,235.6,47.6,236.5,47.3z M242.3,52.4c-0.1-0.3-0.1-0.6-0.2-0.9c-0.1,0-0.2,0.1-0.3,0.1 c0,0.2-0.1,0.4,0,0.5C241.9,52.2,242.1,52.2,242.3,52.4z M343.8,334.2c8.7,1.9,16.6-0.3,23.9-5.1C360,332,352.2,334.5,343.8,334.2z M399.5,301.2L399.5,301.2c-0.1,0-0.1,0-0.1,0C399.5,301.2,399.5,301.2,399.5,301.2z M393.9,305c-2.9,3-5.6,6.2-8.4,9.3 c-0.8,0.9-1.7,1.8-2.5,2.7c0.2,0.1,0.3,0.3,0.5,0.4c5.3-5.4,10.6-10.8,15.9-16.2C397,301.5,395.5,303.4,393.9,305z M364.6,327.9 c-0.1,0-0.1-0.1-0.2-0.1c0,0,0,0.1-0.1,0.1c0.1,0,0.1,0.1,0.2,0.1C364.6,328.1,364.6,328,364.6,327.9z M363,328.5l-0.2,0.1l0.2,0.1 L363,328.5z M175,371.3c-2.8,3.7-5.5,7.5-8.3,11.2C170.9,379.9,173.5,376,175,371.3z M172,372.1c0-0.1,0.1-0.1,0.1-0.2 c-0.1,0-0.2-0.1-0.3-0.1c0,0.1,0,0.2,0,0.2C171.9,372,171.9,372.1,172,372.1z M68.4,208c0.1,0.1,0.3,0.1,0.4,0.2c0,0,0.1,0,0.1,0 c0,0,0,0-0.1-0.1C68.7,208,68.5,208,68.4,208z M51,213.4c0.1,0,0.1,0,0.2,0.1C51.1,213.4,51.1,213.4,51,213.4 C51,213.4,51,213.4,51,213.4z M103.7,179.4L103.7,179.4c0.1-0.1,0.1-0.1,0.1-0.1c0,0,0,0,0,0L103.7,179.4z M95.4,182.7 c0,0,0-0.1,0-0.1c-0.1,0-0.1,0.1-0.2,0.1C95.3,182.7,95.3,182.7,95.4,182.7z M95.4,182.6C95.4,182.6,95.4,182.5,95.4,182.6 c0.1-0.1,0.1-0.1,0.1-0.2C95.5,182.4,95.5,182.5,95.4,182.6C95.4,182.5,95.4,182.5,95.4,182.6z M220.6,125.8 c-0.3-0.1-0.5-0.2-0.8-0.2c-0.6,1.9-1.2,3.7-1.8,5.6c0.3,0.1,0.6,0.2,0.9,0.3C219.5,129.6,220.1,127.7,220.6,125.8z M201.1,109.3 c0-0.1,0.1-0.2,0.1-0.3c-0.4-0.1-0.7-0.1-1.1-0.2C200.5,109,200.8,109.2,201.1,109.3z M208.8,117.1c0.3,0,0.5,0,0.8,0.1 c0-0.1,0-0.2,0-0.3c-0.3,0-0.5,0-0.8-0.1C208.8,116.9,208.8,117,208.8,117.1z M211.3,117.3c-0.1,0-0.3,0.1-0.4,0.1 c0.1,0.1,0.1,0.2,0.2,0.2c0.1,0,0.3-0.1,0.4-0.1C211.4,117.4,211.3,117.3,211.3,117.3z M199.5,108.7c0.1,0,0.3,0.1,0.4,0.1 c0.1,0,0.1,0,0.2,0c0,0-0.1,0-0.1-0.1C199.9,108.8,199.7,108.7,199.5,108.7z M201.4,181.8c2.6-2.3,4.1-5.9,3.9-9.3 C203.9,175.8,202.7,178.5,201.4,181.8z M132.2,359.6c5.7-2.6,10.3-6.6,14.2-11.3c-4.4,3.3-8.8,6.7-13.2,10.1 C132.7,358.6,132.5,359.1,132.2,359.6z M132.1,359.6L132.1,359.6c-0.1,0.1-0.3,0.1-0.4,0.2C131.8,359.8,132,359.7,132.1,359.6 L132.1,359.6C132.1,359.6,132.1,359.6,132.1,359.6C132.1,359.6,132.1,359.6,132.1,359.6C132.1,359.6,132.1,359.6,132.1,359.6z M105.8,373.1c0.1-0.1,0.1-0.1,0.2-0.2C105.9,373,105.8,373,105.8,373.1L105.8,373.1z M113.1,369.2c-2.7,0-4.5,1.1-7.1,3.7 C108.4,371.7,110.7,370.5,113.1,369.2z M135.6,340.3C135.4,340.4,135.5,340.4,135.6,340.3C135.5,340.4,135.4,340.4,135.6,340.3 c0,0,0.1,0,0.1,0c0.1,0,0.2-0.1,0.2-0.1C135.9,340.2,135.8,340.2,135.6,340.3C135.6,340.3,135.6,340.3,135.6,340.3z M85.2,309.8 c0.1,0.2,0.3,0.4,0.4,0.6c1.3-0.8,2.6-1.6,3.9-2.4c-0.1-0.2-0.2-0.4-0.3-0.5C87.8,308.2,86.5,309,85.2,309.8z M119.7,312.2 c-0.2,0.1-0.3,0.2-0.5,0.3c0.2,0,0.4-0.1,0.6-0.1C119.8,312.3,119.7,312.2,119.7,312.2z M119,312.6L119,312.6 c-0.1,0.1-0.2,0.2-0.3,0.3C118.8,312.8,118.9,312.7,119,312.6L119,312.6c0.1,0,0.1-0.1,0.2-0.1C119.1,312.5,119,312.5,119,312.6 C119,312.6,119,312.6,119,312.6z M39.6,126.1c0,0,0.1,0,0.1-0.1C39.7,126,39.6,126,39.6,126.1C39.6,126,39.6,126.1,39.6,126.1z M40.3,125.7c-0.2,0.1-0.4,0.2-0.6,0.3c0.2,0,0.4-0.1,0.7-0.1C40.3,125.8,40.3,125.8,40.3,125.7z M21.8,174.8l0,0.2l0.2-0.1 L21.8,174.8z M14.9,153.3L14.9,153.3C15,153.3,15,153.3,14.9,153.3C15,153.2,15,153.2,14.9,153.3L14.9,153.3z M107.8,25.7 c1.3-1.6,2.7-3.2,4.1-5C108.8,21.1,107.1,23.2,107.8,25.7z M137.5,25.7c1.6,1.8,3.1,3.6,5,5.7C141.9,28,139.9,25.8,137.5,25.7z M111.4,23.5c0.1,0.2,0.2,0.3,0.3,0.5c0.4-0.3,0.8-0.6,1.2-1c-0.1-0.1-0.2-0.2-0.3-0.4C112.3,23,111.9,23.2,111.4,23.5z M172.2,125.5c0,0.1,0,0.2-0.1,0.2C172.2,125.7,172.2,125.6,172.2,125.5c0.9-1.5,1.8-3.1,2.7-4.6c0,0,0-0.1,0-0.1c0,0-0.1,0-0.1,0 C173.9,122.4,173.1,124,172.2,125.5z M174.9,120.8C174.9,120.8,175,120.8,174.9,120.8c0.1-0.1,0.1-0.1,0.1-0.2 C175,120.7,174.9,120.8,174.9,120.8z M215.1,24c2.2-0.3,4.4-0.6,6.6-0.8C219.3,22,217,21.7,215.1,24z M216.1,27.5 c0.1,0.1,0.2,0.2,0.3,0.3c0.6-0.5,1.2-0.9,1.7-1.4c-0.2-0.2-0.3-0.3-0.5-0.5C217.1,26.5,216.6,27,216.1,27.5z M197,86.1 c0.3,1.2,0.5,2.5,0.8,3.7c0-1.3,0-2.6,0-3.8C197.5,86.1,197.3,86.1,197,86.1z M215.7,67.8c0.1,0,0.2,0,0.2,0c0-0.8,0-1.6,0-2.4 c-0.1,0-0.3,0-0.4,0C215.6,66.2,215.7,67,215.7,67.8z M213.1,71.4c0.1,0,0.2,0,0.2,0c0-0.5,0-0.9,0-1.4c0,0-0.1,0-0.1,0 C213.1,70.5,213.1,71,213.1,71.4z M135.6,227.3c1.4,0,2.7,0,4.1,0c0-0.1,0-0.3,0-0.4c-1.3,0-2.6,0-3.9,0 C135.7,227.1,135.6,227.2,135.6,227.3z M223.6,93.4c0,0,0.1,0,0.1,0c0-0.5,0-1,0-1.5c0,0-0.1,0-0.1,0 C223.6,92.4,223.6,92.9,223.6,93.4z M218.9,94.5C218.9,94.5,219,94.5,218.9,94.5c0.1-0.2,0.1-0.4,0.1-0.5c0,0,0,0-0.1,0 C218.9,94.1,218.9,94.3,218.9,94.5z M229.3,87.4c0,0.1,0,0.1,0,0.2c0,0.1,0,0.1,0,0.2c0-0.1,0-0.1,0-0.2 C229.3,87.5,229.3,87.4,229.3,87.4z M229.3,86.2c0,0.4,0,0.8,0,1.2c0.1-0.4,0.2-0.8,0.3-1.2C229.5,86.2,229.4,86.2,229.3,86.2z M103,215c0,0.2,0.1,0.3,0.1,0.5c1.1-0.1,2.1-0.2,3.2-0.4c0-0.2-0.1-0.4-0.1-0.6C105.1,214.6,104,214.8,103,215z M77.1,230.5l0,0.1 c0,0,0.1,0,0.1,0C77.2,230.6,77.2,230.6,77.1,230.5L77.1,230.5z M98.5,115.6L98.5,115.6c0.1,0,0.1,0,0.1,0c0,0,0,0,0,0L98.5,115.6z M103.2,107.7L103.2,107.7C103.3,107.8,103.3,107.8,103.2,107.7C103.3,107.8,103.3,107.8,103.2,107.7L103.2,107.7z M104.8,105.8 l0.1,0.1L104.8,105.8c-0.1-0.2-0.3-0.4-0.5-0.6l-0.1-0.1l0.1,0.1C104.5,105.4,104.7,105.6,104.8,105.8z M105.9,104.7L105.9,104.7 c0.1,0.2,0.3,0.4,0.5,0.6c0,0,0,0,0,0c0,0,0,0,0,0C106.2,105.1,106.1,104.9,105.9,104.7z M112.4,99.8c0.1,0,0.1,0.1,0.2,0.1 c0,0,0-0.1-0.1-0.1C112.6,99.8,112.5,99.8,112.4,99.8z M112.6,99.9C112.7,99.9,112.7,99.9,112.6,99.9c0.1,0.1,0.1,0.1,0.1,0.1 c0,0,0-0.1,0-0.1C112.7,99.9,112.7,99.9,112.6,99.9z M119.5,97.4c0,0,0.1,0.1,0.1,0.1C119.6,97.4,119.6,97.4,119.5,97.4L119.5,97.4z M116.2,115c0,0.1,0,0.1,0.1,0.2c0,0,0.1,0,0.1,0c0,0,0-0.1,0-0.1C116.3,115.1,116.3,115,116.2,115z M115.2,114.1 c0.3,0.3,0.7,0.6,1,0.9c-0.2-0.4-0.4-0.8-0.6-1.2C115.5,113.9,115.3,114,115.2,114.1z M117.5,113.5l-0.2,0L117.5,113.5 c0.5,0.6,1,1.1,1.5,1.6c0,0,0,0,0,0c0,0,0,0,0-0.1C118.5,114.5,118,114,117.5,113.5z M114.2,116.6c0,0,0.1,0.1,0.1,0.1c0,0,0,0,0,0 c0,0,0,0,0,0C114.3,116.6,114.2,116.6,114.2,116.6z M113.3,116.3c0.3,0.1,0.6,0.2,0.8,0.2c-0.2-0.2-0.5-0.3-0.7-0.5 C113.4,116.2,113.4,116.2,113.3,116.3z M111.5,116.6c0,0,0.1,0.1,0.1,0.1c0,0,0,0,0.1,0c0,0,0,0,0-0.1 C111.6,116.6,111.6,116.6,111.5,116.6z M110.5,116.1c0.4,0.1,0.7,0.3,1.1,0.4c-0.3-0.3-0.6-0.5-0.8-0.8 C110.6,115.9,110.5,116,110.5,116.1z M119.4,113.6C119.4,113.6,119.4,113.5,119.4,113.6C119.4,113.6,119.4,113.6,119.4,113.6 c0.3,0.4,0.6,0.7,1,1.1c0,0,0,0,0,0c0,0,0,0,0,0C120.1,114.3,119.8,113.9,119.4,113.6z M109.6,117.1c-0.1,0-0.2-0.1-0.3-0.1 C109.3,117.1,109.4,117.1,109.6,117.1c0.1,0.2,0.3,0.4,0.5,0.6c0,0,0,0,0,0c0,0,0,0,0,0C109.9,117.5,109.8,117.3,109.6,117.1z M119.3,113.4C119.3,113.5,119.3,113.5,119.3,113.4c0,0,0-0.1,0-0.1C119.3,113.4,119.3,113.4,119.3,113.4z M121,112.6 c-0.2-0.2-0.3-0.4-0.5-0.5c-0.2-0.2-0.4-0.3-0.6-0.5c-0.1-0.1-0.1-0.1-0.2-0.2c0,0.1,0.1,0.2,0.1,0.2c0.2,0.2,0.4,0.3,0.6,0.5 C120.7,112.2,120.8,112.4,121,112.6c0.1,0.2,0.3,0.4,0.5,0.5c0,0,0,0,0,0c0,0,0,0,0,0C121.4,112.9,121.2,112.7,121,112.6z M121.1,110.4c-0.2-0.2-0.3-0.4-0.5-0.6c-0.1,0-0.1,0-0.2-0.1c0.1,0,0.1,0.1,0.2,0.1C120.7,110.1,120.9,110.3,121.1,110.4 c0.1,0.2,0.3,0.4,0.4,0.6c0,0,0,0,0.1,0c0,0,0,0,0,0C121.4,110.8,121.2,110.6,121.1,110.4z M121.1,108.3L121.1,108.3L121.1,108.3 c0.1,0.2,0.3,0.4,0.5,0.6c0,0,0,0,0.1,0c0,0,0,0,0,0C121.4,108.7,121.2,108.5,121.1,108.3z" fill="#a77362"/></g></svg>